<?xml version="1.0" standalone="no"?>
<!DOCTYPE svg PUBLIC "-//W3C//DTD SVG 20010904//EN"
 "http://www.w3.org/TR/2001/REC-SVG-20010904/DTD/svg10.dtd">
<svg version="1.0" xmlns="http://www.w3.org/2000/svg"
 width="512.000000pt" height="512.000000pt" viewBox="0 0 512.000000 512.000000"
 preserveAspectRatio="xMidYMid meet">
<metadata>
Created by potrace 1.16, written by Peter Selinger 2001-2019
</metadata>
<g transform="translate(0.000000,512.000000) scale(0.100000,-0.100000)"
fill="#000000" stroke="none">
<path d="M2223 4606 l-28 -24 -3 -310 -3 -309 -117 -52 c-64 -28 -120 -51
-124 -51 -5 0 -8 121 -8 269 0 148 -3 277 -6 286 -4 8 -20 23 -36 31 -45 23
-94 11 -118 -29 -19 -30 -20 -52 -20 -337 l0 -305 -112 -49 c-62 -27 -119 -51
-125 -53 -10 -4 -13 56 -13 279 0 282 0 285 -22 305 -30 27 -63 34 -99 21 -52
-18 -54 -28 -59 -372 l-5 -320 -120 -52 -120 -52 -3 293 -2 294 -26 20 c-41
33 -96 28 -128 -10 l-26 -31 0 -323 c0 -249 -3 -324 -13 -328 -187 -78 -366
-162 -379 -178 -25 -30 -23 -83 5 -113 12 -14 83 -51 167 -87 80 -34 148 -65
152 -68 4 -4 -64 -38 -152 -76 -89 -38 -165 -74 -171 -81 -6 -7 -13 -30 -16
-51 -8 -61 16 -81 184 -153 81 -35 151 -66 155 -69 4 -4 -65 -38 -153 -76
-168 -72 -189 -89 -189 -148 0 -46 34 -71 187 -137 81 -35 151 -66 155 -70 5
-3 -64 -37 -153 -75 -168 -72 -189 -89 -189 -148 0 -46 34 -71 187 -137 81
-35 151 -66 155 -69 4 -4 -65 -38 -153 -76 -168 -72 -189 -89 -189 -148 0 -54
24 -67 540 -291 426 -185 506 -217 534 -212 42 8 65 34 73 78 10 65 -15 79
-427 257 -206 90 -378 166 -382 169 -4 4 50 32 120 63 l127 55 730 -318 c402
-174 740 -317 753 -318 12 0 49 11 82 25 33 14 62 25 65 25 3 0 5 -51 5 -112
l0 -113 -75 -32 -75 -31 -182 79 c-101 43 -193 79 -205 79 -12 0 -35 -12 -52
-26 -40 -33 -44 -93 -8 -127 26 -26 415 -197 447 -197 13 0 359 146 770 325
412 179 759 325 773 325 14 0 38 11 54 24 15 12 119 63 231 111 208 90 242
113 242 162 0 59 -21 76 -189 148 -100 43 -156 72 -148 77 6 4 76 35 155 69
147 64 182 90 182 136 0 59 -21 76 -189 148 -89 38 -158 72 -153 75 4 4 74 35
155 70 153 66 187 91 187 137 0 59 -21 76 -189 148 -88 38 -157 72 -153 76 4
3 72 34 152 68 150 64 190 93 190 137 0 60 -20 76 -189 149 -88 38 -157 72
-153 76 4 3 72 34 152 68 152 65 190 93 190 139 -1 61 -18 73 -237 168 l-208
90 -5 113 c-5 103 -7 114 -29 132 -30 25 -92 25 -122 0 -19 -16 -24 -30 -27
-90 -3 -49 -8 -71 -16 -68 -6 3 -322 140 -703 306 -422 183 -704 301 -723 301
-18 0 -62 -13 -100 -30 -38 -16 -71 -30 -74 -30 -3 0 -6 107 -6 238 0 132 -5
253 -10 274 -19 69 -93 90 -147 44z m854 -908 c446 -194 510 -225 502 -240 -5
-9 -9 -151 -9 -316 l0 -300 -116 -51 c-64 -28 -120 -51 -125 -51 -5 0 -9 123
-9 274 l0 274 -31 26 c-41 35 -83 34 -120 -3 l-29 -29 0 -314 0 -314 -110 -47
c-60 -26 -116 -50 -125 -53 -13 -5 -15 26 -15 274 l0 281 -24 28 c-34 39 -98
39 -132 0 l-24 -28 0 -320 0 -320 -74 -34 -74 -33 -863 375 c-475 206 -867
378 -871 382 -7 6 1701 757 1727 760 5 1 240 -99 522 -221z m804 -350 l120
-52 -3 -135 -3 -135 -100 -44 c-55 -24 -110 -48 -122 -53 l-23 -9 0 240 c0
132 3 240 6 240 3 0 60 -23 125 -52z m-2033 -837 c381 -165 701 -301 712 -301
11 0 45 11 76 25 31 14 60 25 65 25 5 0 9 -50 9 -111 l0 -110 -74 -34 -74 -34
-863 376 c-475 206 -867 378 -872 382 -4 4 50 32 120 62 l128 55 40 -17 c22
-9 352 -152 733 -318z m2145 88 c-7 -7 -44 -24 -211 -95 l-33 -15 3 116 3 116
120 52 120 52 3 -109 c1 -60 -1 -113 -5 -117z m-425 -129 l-3 -61 -123 -53
-123 -54 3 116 3 116 120 52 120 53 3 -54 c2 -30 2 -82 0 -115z m-428 -133 l0
-114 -112 -48 c-62 -26 -119 -50 -125 -52 -10 -4 -13 22 -13 109 l0 113 118
52 c64 28 120 52 125 52 4 1 7 -50 7 -112z m-1328 -241 c401 -174 737 -316
748 -316 11 0 45 11 76 25 31 14 60 25 65 25 5 0 9 -50 9 -111 l0 -110 -74
-34 -74 -34 -864 375 c-474 207 -866 379 -870 383 -7 6 242 121 252 116 3 -2
332 -145 732 -319z m2181 73 c-7 -7 -166 -79 -221 -100 l-23 -9 3 116 3 115
120 52 120 52 3 -109 c1 -60 -1 -113 -5 -117z m-425 -129 l-3 -61 -123 -54
-123 -54 3 117 3 116 120 52 120 51 3 -53 c2 -29 2 -81 0 -114z m-428 -133 l0
-114 -112 -48 c-62 -26 -119 -50 -125 -52 -10 -4 -13 22 -13 109 l0 114 118
51 c64 28 120 51 125 52 4 1 7 -50 7 -112z m-1328 -241 c400 -174 737 -316
750 -316 13 0 47 11 76 25 30 14 58 25 63 25 5 0 9 -51 9 -112 l0 -113 -75
-32 -75 -31 -863 375 c-474 206 -865 378 -869 381 -7 7 242 122 252 116 3 -1
332 -144 732 -318z m2186 182 l-3 -111 -105 -47 c-58 -25 -113 -49 -122 -53
-17 -6 -18 3 -18 107 l0 114 113 50 c61 28 118 51 125 51 10 1 12 -25 10 -111z
m-430 -238 l-3 -61 -123 -54 -123 -54 3 117 3 116 120 52 120 51 3 -53 c2 -29
2 -81 0 -114z m-428 -133 l0 -113 -120 -52 c-66 -29 -122 -52 -125 -52 -3 0
-5 51 -5 113 l0 113 118 51 c64 28 120 51 125 52 4 1 7 -50 7 -112z m858 -59
l-3 -112 -95 -43 c-52 -23 -107 -46 -122 -52 l-28 -10 0 113 0 114 113 50 c61
28 118 51 125 51 10 1 12 -25 10 -111z m-435 -298 c-4 -4 -61 -30 -126 -58
l-118 -51 3 116 3 116 120 52 120 52 3 -110 c1 -61 -1 -113 -5 -117z m-423
-73 l0 -114 -119 -51 c-66 -29 -122 -52 -125 -52 -3 0 -6 51 -6 113 l0 112
118 52 c64 28 120 52 125 52 4 1 7 -50 7 -112z"/>
<path d="M1812 963 c-24 -9 -44 -64 -37 -99 18 -100 175 -85 175 16 0 57 -31
90 -83 89 -23 0 -48 -3 -55 -6z"/>
</g>
</svg>
