<?xml version="1.0" standalone="no"?>
<!DOCTYPE svg PUBLIC "-//W3C//DTD SVG 20010904//EN"
 "http://www.w3.org/TR/2001/REC-SVG-20010904/DTD/svg10.dtd">
<svg version="1.0" xmlns="http://www.w3.org/2000/svg"
 width="512.000000pt" height="512.000000pt" viewBox="0 0 512.000000 512.000000"
 preserveAspectRatio="xMidYMid meet">
<metadata>
Created by potrace 1.16, written by Peter Selinger 2001-2019
</metadata>
<g transform="translate(0.000000,512.000000) scale(0.100000,-0.100000)"
fill="#000000" stroke="none">
<path d="M2370 4994 c-478 -45 -902 -205 -1265 -477 -527 -395 -865 -963 -962
-1616 -24 -161 -24 -521 0 -682 111 -742 539 -1381 1180 -1761 269 -159 568
-264 897 -315 160 -24 520 -24 680 0 661 102 1221 434 1617 962 240 320 395
696 460 1115 25 160 25 520 0 680 -65 421 -218 792 -460 1115 -393 524 -958
862 -1607 960 -102 15 -448 27 -540 19z m401 -94 c998 -97 1828 -810 2069
-1780 107 -429 88 -885 -55 -1308 -118 -349 -300 -639 -569 -908 -369 -369
-807 -590 -1326 -671 -160 -24 -500 -24 -660 0 -504 78 -941 295 -1302 645
-140 136 -219 231 -330 397 -286 428 -427 987 -378 1496 54 561 302 1076 706
1470 129 125 203 185 349 282 319 211 710 346 1100 380 90 8 300 6 396 -3z"/>
<path d="M1025 4140 c-86 -56 -86 -197 0 -250 29 -18 49 -20 209 -20 l176 0 0
-159 0 -160 -42 -3 -43 -3 -3 -146 -3 -146 -75 -7 c-42 -3 -95 -14 -118 -25
-144 -63 -207 -225 -140 -359 59 -119 159 -158 417 -161 20 -1 37 -6 37 -11 0
-6 -27 -57 -60 -114 -46 -79 -60 -112 -59 -137 2 -27 -15 -65 -80 -176 -54
-95 -89 -144 -104 -149 -67 -21 -125 -102 -134 -186 -8 -78 11 -135 63 -187
l44 -44 0 -331 c0 -284 2 -335 16 -354 34 -49 116 -67 174 -37 61 31 60 28 60
393 l0 333 29 25 c68 57 93 191 51 274 l-20 39 69 118 c50 86 74 119 92 123
17 4 43 40 102 140 43 74 82 141 86 149 7 11 31 -8 103 -77 67 -65 112 -100
158 -121 36 -17 71 -31 78 -31 9 0 12 -30 12 -119 l0 -119 -36 -6 c-46 -9
-111 -73 -119 -118 -3 -18 -5 -231 -3 -474 l3 -441 27 -35 c53 -69 43 -68 566
-68 308 0 480 4 499 11 34 13 80 55 99 91 11 22 14 108 14 468 0 419 -1 443
-20 480 -21 42 -61 75 -103 85 l-27 7 0 117 0 117 68 29 c50 21 84 46 138 99
38 39 82 81 96 94 l26 23 83 -146 c67 -116 89 -147 109 -151 19 -5 40 -32 92
-123 l66 -118 -20 -59 c-33 -97 -5 -206 67 -262 l25 -20 0 -331 c0 -291 2
-335 16 -357 47 -72 171 -72 218 0 14 22 16 66 16 356 l0 331 30 26 c118 99
91 306 -49 380 -39 20 -53 39 -124 160 -82 141 -84 147 -73 173 4 9 -19 60
-59 129 -36 62 -65 117 -65 122 0 5 17 9 38 10 124 1 250 18 288 37 102 52
154 133 154 239 0 78 -16 118 -69 176 -51 55 -121 87 -212 94 l-69 6 0 142 c0
154 0 155 -56 155 l-24 0 0 160 0 160 168 0 c148 0 171 2 199 20 42 25 63 68
63 125 0 57 -21 100 -63 125 -30 19 -53 20 -485 20 -500 0 -494 1 -532 -63
-27 -44 -26 -119 1 -164 36 -58 58 -63 254 -63 l175 0 0 -159 0 -160 -42 -3
-43 -3 -5 -103 -5 -102 -64 37 c-35 21 -99 71 -141 111 l-78 72 -186 0 -185 0
-3 148 -3 147 -37 3 -38 3 0 116 0 115 -34 34 c-30 30 -40 34 -86 34 -46 0
-56 -4 -86 -34 l-34 -34 0 -115 0 -116 -32 -3 -33 -3 -3 -147 -3 -148 -187 0
-187 0 -76 -73 c-42 -39 -105 -89 -140 -110 l-64 -37 -5 102 -5 103 -37 3 -38
3 0 160 0 159 168 0 c148 0 171 2 199 20 88 53 88 197 0 250 -31 19 -53 20
-487 20 -436 0 -456 -1 -485 -20z m924 -94 c26 -24 26 -38 0 -62 -20 -18 -42
-19 -439 -19 -447 0 -450 0 -450 50 0 25 14 40 45 48 11 3 201 4 421 4 380 -2
403 -3 423 -21z m2070 15 c13 -3 30 -16 38 -27 12 -19 11 -24 -6 -45 l-19 -24
-420 0 c-449 0 -452 0 -452 50 0 25 15 40 45 48 31 7 787 6 814 -2z m-2469
-351 l0 -160 -25 0 -25 0 0 160 0 160 25 0 25 0 0 -160z m1130 -45 l0 -105
-115 0 -115 0 0 105 0 105 115 0 115 0 0 -105z m456 -254 c173 -162 375 -243
653 -260 166 -10 220 -32 257 -103 l15 -28 -548 0 -548 0 -23 54 c-31 70 -110
149 -192 189 -60 30 -72 32 -170 32 -97 0 -110 -2 -173 -32 -82 -39 -155 -111
-191 -188 l-27 -55 -559 0 c-399 0 -560 3 -560 11 0 23 43 70 83 91 33 16 70
23 167 29 132 8 243 27 332 58 125 43 264 129 348 215 l44 46 514 0 514 0 64
-59z m-1516 -30 l0 -78 -57 -16 c-32 -9 -77 -19 -100 -23 l-43 -7 0 102 0 101
100 0 100 0 0 -79z m2100 -21 c0 -97 -1 -100 -22 -100 -23 0 -79 12 -150 31
l-38 10 0 79 0 80 105 0 105 0 0 -100z m-1034 -177 c70 -24 155 -110 179 -183
28 -84 23 -159 -14 -235 -104 -210 -388 -233 -519 -42 -91 131 -73 289 44 396
30 27 73 56 96 64 58 21 154 21 214 0z m-511 -263 c-12 -20 16 -152 44 -208
34 -67 117 -149 183 -181 252 -121 558 52 576 326 l5 73 539 0 c522 0 538 -1
529 -19 -14 -26 -78 -80 -110 -93 -14 -5 -91 -14 -171 -19 -279 -17 -419 -71
-580 -225 -100 -96 -139 -121 -230 -148 -211 -63 -589 -63 -800 0 -91 27 -131
52 -230 148 -160 154 -299 208 -581 225 -115 8 -156 14 -187 30 -38 20 -92 73
-92 92 0 5 223 9 556 9 376 0 553 -3 549 -10z m-552 -266 c26 -9 49 -20 53
-25 3 -6 -91 -184 -122 -227 -4 -6 -114 60 -114 68 0 18 113 200 124 200 7 0
33 -7 59 -16z m2004 -83 c29 -52 52 -98 51 -103 -2 -5 -26 -22 -55 -38 -39
-22 -53 -26 -61 -17 -31 40 -122 211 -115 218 14 14 87 38 107 36 12 -1 37
-35 73 -96z m-2187 -294 c-17 -29 -45 -78 -63 -109 -34 -63 -34 -62 -71 -48
l-25 9 67 115 66 115 28 -15 28 -15 -30 -52z m2338 -40 l61 -108 -25 -9 c-14
-6 -28 -10 -32 -10 -4 0 -35 50 -69 110 l-62 110 27 14 c15 8 30 11 33 8 3 -4
33 -56 67 -115z m-1475 57 l37 -6 0 -94 0 -94 -65 0 -65 0 0 106 0 106 28 -6
c15 -3 44 -8 65 -12z m627 -89 l0 -105 -65 0 -65 0 0 95 0 94 38 6 c20 4 42 8
47 10 43 14 45 9 45 -100z m-220 -15 l0 -90 -140 0 -140 0 0 90 0 90 140 0
140 0 0 -90z m-1409 -181 c114 -81 49 -252 -90 -236 -36 4 -52 13 -78 41 -28
31 -33 43 -33 87 0 46 4 55 39 90 34 34 44 39 86 39 31 0 56 -7 76 -21z m2660
4 c16 -10 39 -36 50 -60 27 -55 14 -108 -36 -152 -106 -93 -265 34 -200 160
33 63 124 88 186 52z m-925 -35 c23 -23 28 -37 32 -102 l5 -76 -508 0 -508 0
5 74 c5 82 24 122 60 129 13 3 218 4 455 3 l433 -1 26 -27z m32 -568 l-3 -300
-28 -27 -27 -28 -430 -3 c-488 -3 -490 -3 -509 65 -7 22 -11 150 -11 316 l0
277 506 0 505 0 -3 -300z m-1798 -26 c0 -177 -4 -293 -10 -305 -6 -10 -19 -19
-30 -19 -11 0 -24 9 -30 19 -6 12 -10 128 -10 305 l0 286 40 0 40 0 0 -286z
m2670 0 c0 -177 -4 -293 -10 -305 -6 -10 -19 -19 -30 -19 -11 0 -24 9 -30 19
-6 12 -10 128 -10 305 l0 286 40 0 40 0 0 -286z"/>
<path d="M2555 3005 c-5 -2 -22 -6 -37 -9 -41 -9 -95 -61 -114 -111 -40 -106
26 -229 134 -251 178 -36 301 174 181 311 -36 41 -124 73 -164 60z m66 -112
c55 -33 61 -104 12 -143 -37 -29 -79 -26 -114 9 -43 44 -33 106 22 137 32 18
46 17 80 -3z"/>
<path d="M2427 1673 c-4 -3 -7 -39 -7 -79 l0 -73 -72 -3 -73 -3 0 -135 0 -135
72 -3 72 -3 3 -77 3 -77 129 -3 c86 -2 133 1 142 9 9 8 14 34 14 80 l0 68 73
3 72 3 0 135 0 135 -72 3 -73 3 0 67 c0 40 -5 73 -12 80 -13 13 -259 18 -271
5z m195 -155 l3 -73 73 -3 72 -3 0 -54 0 -54 -72 -3 -73 -3 -3 -72 -3 -73 -54
0 -55 0 0 63 c0 36 -5 68 -12 75 -7 7 -39 12 -75 12 l-63 0 0 55 0 54 73 3 72
3 3 73 3 72 54 0 54 0 3 -72z"/>
</g>
</svg>
