<?xml version="1.0" standalone="no"?>
<!DOCTYPE svg PUBLIC "-//W3C//DTD SVG 20010904//EN"
 "http://www.w3.org/TR/2001/REC-SVG-20010904/DTD/svg10.dtd">
<svg version="1.0" xmlns="http://www.w3.org/2000/svg"
 width="512.000000pt" height="512.000000pt" viewBox="0 0 512.000000 512.000000"
 preserveAspectRatio="xMidYMid meet">
<metadata>
Created by potrace 1.16, written by Peter Selinger 2001-2019
</metadata>
<g transform="translate(0.000000,512.000000) scale(0.100000,-0.100000)"
fill="#000000" stroke="none">
<path d="M1702 5094 c-103 -51 -152 -140 -152 -275 0 -72 2 -79 26 -98 33 -26
75 -27 104 -3 19 15 24 32 29 93 7 79 24 119 63 141 18 10 183 13 788 13 833
0 793 3 830 -58 19 -30 20 -54 20 -482 0 -434 -1 -451 -20 -483 -33 -54 -67
-62 -265 -62 l-175 0 36 47 c80 104 117 215 117 344 -1 148 -53 276 -154 379
-105 106 -235 160 -389 160 -154 0 -284 -54 -389 -160 -192 -194 -207 -500
-37 -723 l36 -47 -175 0 c-287 0 -278 -10 -285 338 -5 252 -5 254 -29 273 -33
27 -77 24 -107 -6 l-25 -25 3 -273 c3 -257 4 -274 25 -312 27 -51 76 -97 133
-125 34 -18 68 -24 143 -28 79 -4 97 -7 93 -19 -3 -8 -436 -807 -961 -1777
-1016 -1876 -976 -1797 -940 -1866 34 -65 -169 -60 2515 -60 2684 0 2481 -5
2515 60 36 69 53 34 -576 1194 -324 600 -598 1097 -607 1104 -24 18 -86 15
-105 -5 -44 -50 -66 -5 543 -1130 315 -582 575 -1061 577 -1065 2 -5 -60 -8
-139 -8 l-144 0 -582 728 c-321 401 -596 736 -612 746 -16 9 -51 19 -77 22
-91 10 -112 -8 -363 -322 l-225 -280 -349 504 c-234 338 -358 510 -379 522
-72 44 -174 32 -229 -28 -14 -15 -145 -201 -291 -413 -199 -288 -267 -394
-267 -416 0 -59 55 -96 109 -73 16 6 61 61 120 146 100 146 122 164 199 164
22 0 71 -12 108 -26 97 -38 201 -38 303 -1 41 15 92 27 113 27 87 0 72 18 538
-655 239 -346 437 -632 438 -637 2 -4 -555 -8 -1237 -8 -683 0 -1241 3 -1241
6 0 3 112 168 250 367 267 386 275 402 230 447 -31 31 -92 27 -122 -8 -12 -16
-144 -205 -293 -420 l-270 -391 -143 -1 c-79 0 -141 3 -139 8 2 4 437 807 967
1785 l962 1777 420 -2 419 -3 314 -580 c173 -319 324 -588 336 -597 25 -21 48
-23 83 -7 29 14 51 59 41 88 -3 11 -134 256 -291 546 -157 289 -287 531 -290
539 -4 10 17 14 93 19 57 3 114 12 135 21 52 22 104 70 136 125 l27 46 3 489
c3 544 3 546 -63 624 -19 22 -58 52 -87 66 l-52 26 -806 0 -806 0 -52 -26z
m1021 -478 c150 -72 242 -244 217 -404 -34 -210 -242 -361 -442 -322 -167 32
-291 158 -318 324 -28 175 79 353 252 417 80 29 213 22 291 -15z m-663 -2841
l111 -159 -48 -12 c-26 -7 -75 -22 -108 -34 -51 -19 -67 -21 -105 -12 -42 10
-191 53 -198 58 -8 5 221 325 229 322 5 -2 59 -75 119 -163z m1396 -428 c90
-111 103 -132 87 -138 -121 -41 -183 -59 -208 -59 -16 0 -74 15 -127 33 l-97
33 110 137 c60 76 114 135 120 131 5 -3 57 -65 115 -137z m-279 -323 c38 -14
99 -28 138 -31 60 -4 83 -1 164 26 108 36 129 37 194 14 46 -17 64 -36 384
-438 185 -231 340 -426 346 -432 7 -10 -95 -13 -505 -13 l-514 0 -261 377
-261 377 40 51 c43 54 54 62 108 82 53 19 93 16 167 -13z"/>
<path d="M2453 4479 c-80 -39 -125 -115 -125 -209 0 -138 94 -234 232 -234
138 0 232 96 232 234 0 96 -46 171 -127 209 -61 29 -155 29 -212 0z m157 -159
c26 -26 26 -81 0 -105 -46 -42 -120 -10 -120 52 0 42 30 73 70 73 17 0 39 -9
50 -20z"/>
<path d="M1880 4788 c-38 -41 -22 -108 30 -127 37 -12 72 -1 94 31 22 30 20
60 -5 92 -27 34 -88 37 -119 4z"/>
<path d="M2444 3100 c-251 -21 -473 -124 -550 -256 -35 -59 -42 -144 -19 -213
21 -64 89 -138 170 -186 61 -36 205 -87 283 -100 l42 -7 -18 -26 c-28 -40 -32
-59 -21 -89 13 -36 38 -52 77 -53 27 0 46 13 118 82 87 84 114 121 114 157 0
24 -134 226 -164 246 -45 33 -109 9 -121 -45 -5 -22 -1 -42 14 -70 14 -28 17
-40 8 -40 -34 0 -169 45 -230 77 -146 77 -164 164 -50 247 174 128 540 158
795 66 124 -45 208 -116 208 -175 0 -58 -87 -131 -209 -175 -35 -13 -72 -33
-82 -44 -42 -45 -6 -126 56 -126 45 0 151 39 221 81 197 119 231 331 76 471
-146 132 -426 201 -718 178z"/>
</g>
</svg>
