<?xml version="1.0" standalone="no"?>
<!DOCTYPE svg PUBLIC "-//W3C//DTD SVG 20010904//EN"
 "http://www.w3.org/TR/2001/REC-SVG-20010904/DTD/svg10.dtd">
<svg version="1.0" xmlns="http://www.w3.org/2000/svg"
 width="512.000000pt" height="512.000000pt" viewBox="0 0 512.000000 512.000000"
 preserveAspectRatio="xMidYMid meet">
<metadata>
Created by potrace 1.16, written by Peter Selinger 2001-2019
</metadata>
<g transform="translate(0.000000,512.000000) scale(0.100000,-0.100000)"
fill="#000000" stroke="none">
<path d="M441 4298 c-52 -25 -99 -87 -107 -140 l-7 -38 -141 0 c-129 0 -144
-2 -164 -20 -33 -31 -30 -92 4 -119 24 -19 40 -21 165 -21 l139 0 0 -265 c0
-241 2 -269 19 -303 22 -42 43 -63 88 -86 27 -13 69 -16 251 -16 l220 0 11
-44 c16 -64 69 -136 125 -171 44 -27 60 -31 152 -35 l102 -5 -100 -115 c-112
-128 -131 -162 -130 -237 0 -64 23 -114 72 -156 l37 -32 -114 -485 c-70 -302
-110 -495 -107 -512 11 -57 92 -78 132 -36 16 18 45 131 132 508 61 267 114
493 116 502 3 9 15 20 27 24 12 3 128 112 258 241 l236 234 39 -91 c46 -108
86 -160 152 -192 43 -21 62 -23 240 -26 l192 -4 0 -164 0 -164 -92 0 c-112 0
-165 -21 -206 -82 -22 -34 -27 -54 -30 -129 l-4 -89 -152 0 c-172 0 -212 -8
-263 -53 -73 -65 -73 -58 -73 -562 0 -415 2 -453 19 -490 22 -48 60 -87 105
-109 30 -14 118 -16 776 -16 812 0 774 -3 836 58 54 54 64 93 64 257 0 117 -3
155 -15 172 -31 44 -111 37 -134 -13 -6 -14 -11 -79 -11 -153 0 -111 -2 -130
-18 -144 -17 -16 -82 -17 -724 -17 -670 0 -706 1 -721 18 -15 17 -17 62 -17
439 0 394 1 421 18 436 17 16 82 17 724 17 670 0 706 -1 721 -18 14 -15 17
-42 17 -156 0 -132 1 -138 25 -161 15 -16 36 -25 55 -25 19 0 40 9 55 25 24
23 25 28 25 177 0 174 -10 210 -73 265 -51 45 -91 53 -263 53 l-152 0 -4 89
c-3 75 -8 95 -30 129 -41 61 -94 82 -206 82 l-92 0 0 164 0 164 193 4 c177 3
196 5 239 26 66 32 106 84 152 192 l39 91 236 -234 c130 -129 246 -238 258
-241 27 -9 15 34 149 -546 115 -504 117 -510 181 -510 38 0 83 37 83 67 0 10
-50 231 -110 492 -61 261 -110 480 -110 488 0 7 18 29 40 49 67 61 86 165 44
246 -8 16 -59 80 -114 142 l-100 114 103 4 c95 3 108 6 153 33 56 35 109 107
125 171 l11 44 220 0 c195 0 223 2 256 19 42 22 63 43 86 88 14 27 16 73 16
298 l0 265 139 0 c125 0 141 2 165 21 35 27 36 86 3 117 -22 20 -33 22 -164
22 l-140 0 -7 38 c-14 91 -105 162 -207 162 -101 -1 -185 -63 -208 -156 l-11
-44 -141 0 c-135 0 -141 -1 -164 -25 -33 -32 -33 -78 0 -110 23 -24 29 -25
165 -25 l140 0 0 -115 0 -115 -100 0 c-62 0 -133 7 -188 19 -237 53 -1226 262
-1287 272 -101 17 -372 14 -475 -5 -236 -43 -998 -210 -1018 -223 -34 -21 -45
-57 -28 -98 20 -48 50 -53 171 -27 55 11 281 59 502 107 221 47 449 90 505 96
109 11 234 5 358 -16 59 -11 1129 -237 1228 -260 22 -5 22 -8 22 -151 0 -161
-9 -198 -56 -229 -27 -19 -53 -20 -419 -25 l-390 -5 -30 -60 c-16 -34 -50
-107 -74 -164 -65 -152 -22 -141 -519 -141 -461 0 -456 -1 -491 68 -10 20 -40
88 -66 150 -26 62 -54 121 -63 132 -16 19 -33 20 -402 22 -363 3 -387 4 -414
23 -50 33 -56 65 -56 278 0 251 10 237 -175 237 l-135 0 0 115 0 115 140 0
c136 0 142 1 165 25 33 32 33 78 0 110 -23 24 -29 25 -164 25 l-141 0 -11 44
c-14 56 -62 114 -113 137 -57 26 -140 25 -195 -3z m143 -160 c13 -18 16 -57
16 -215 l0 -193 -55 0 -55 0 0 199 c0 168 2 202 16 215 22 23 60 20 78 -6z
m4030 6 c14 -13 16 -47 16 -215 l0 -199 -55 0 -55 0 0 193 c0 158 3 197 16
215 18 26 56 29 78 6z m-3704 -629 l0 -65 -207 2 -208 3 -3 63 -3 62 211 0
210 0 0 -65z m3718 3 l-3 -63 -207 -3 -208 -2 0 65 0 65 210 0 211 0 -3 -62z
m-3128 -673 c-107 -108 -205 -198 -218 -201 -12 -4 -29 -1 -37 6 -34 28 -17
57 130 225 l146 165 87 0 87 0 -195 -195z m2248 29 c78 -90 145 -170 148 -177
3 -8 -4 -24 -14 -37 -14 -17 -25 -21 -43 -17 -13 4 -112 94 -219 202 l-195
195 90 -1 90 0 143 -165z m-950 -716 c7 -7 12 -38 12 -70 l0 -58 -250 0 -250
0 0 58 c0 32 5 63 12 70 17 17 459 17 476 0z"/>
<path d="M2222 3647 c-91 -34 -146 -115 -146 -217 0 -102 42 -167 134 -209 42
-19 65 -21 349 -21 329 0 356 3 416 52 54 45 79 101 79 178 0 105 -60 191
-153 219 -53 16 -634 14 -679 -2z m653 -172 c14 -13 25 -33 25 -45 0 -11 -11
-32 -25 -45 l-24 -25 -286 0 -286 0 -24 25 c-14 13 -25 34 -25 45 0 12 11 32
25 45 l24 25 286 0 286 0 24 -25z"/>
<path d="M2487 1720 c-147 -37 -237 -157 -237 -314 0 -322 444 -424 589 -135
58 117 37 268 -51 358 -76 77 -202 115 -301 91z m126 -164 c57 -24 90 -69 95
-130 5 -68 -21 -117 -79 -146 -73 -38 -151 -17 -196 51 -22 33 -25 47 -21 94
4 44 11 62 34 86 52 56 108 71 167 45z"/>
</g>
</svg>
