<?xml version="1.0" standalone="no"?>
<!DOCTYPE svg PUBLIC "-//W3C//DTD SVG 20010904//EN"
 "http://www.w3.org/TR/2001/REC-SVG-20010904/DTD/svg10.dtd">
<svg version="1.0" xmlns="http://www.w3.org/2000/svg"
 width="512.000000pt" height="512.000000pt" viewBox="0 0 512.000000 512.000000"
 preserveAspectRatio="xMidYMid meet">
<metadata>
Created by potrace 1.16, written by Peter Selinger 2001-2019
</metadata>
<g transform="translate(0.000000,512.000000) scale(0.100000,-0.100000)"
fill="#000000" stroke="none">
<path d="M4048 4970 c-21 -13 -25 -72 -5 -87 6 -6 47 -13 90 -17 110 -8 187
-30 292 -81 163 -79 280 -196 361 -362 47 -95 84 -237 84 -323 0 -55 13 -70
57 -70 46 0 57 26 49 114 -44 461 -380 795 -836 831 -46 3 -82 1 -92 -5z"/>
<path d="M4042 4628 c-14 -14 -16 -57 -3 -76 5 -8 40 -17 86 -23 140 -15 256
-88 336 -212 37 -57 69 -161 69 -226 0 -59 65 -84 96 -36 34 51 -7 230 -76
333 -102 152 -279 252 -448 252 -27 0 -53 -5 -60 -12z"/>
<path d="M2120 4519 c-510 -52 -976 -275 -1331 -635 -100 -101 -105 -105 -141
-101 -89 11 -176 -33 -209 -107 -24 -53 -24 -96 1 -155 l21 -48 -42 -74 c-128
-225 -225 -528 -259 -809 -14 -121 -12 -407 4 -530 87 -641 434 -1196 970
-1552 340 -225 711 -342 1127 -355 626 -20 1192 200 1624 632 332 331 534 722
621 1200 25 141 30 460 9 625 -17 141 -65 343 -110 470 -38 108 -154 342 -215
435 -138 209 -349 437 -530 572 -449 333 -998 487 -1540 432z m560 -128 c112
-20 218 -45 226 -54 4 -3 -123 -407 -129 -414 -1 -1 -38 7 -81 17 -194 47
-479 51 -678 11 -358 -72 -706 -275 -928 -543 l-48 -56 -124 91 -125 92 5 43
c3 27 -2 59 -13 89 l-18 47 109 106 c354 343 762 533 1274 594 94 11 419 -3
530 -23z m500 -146 c230 -102 456 -258 638 -442 350 -355 562 -822 598 -1315
l7 -98 -160 0 -161 0 -12 30 c-15 36 -61 77 -96 86 -18 5 -25 15 -29 43 -35
212 -71 333 -146 491 -132 278 -320 494 -580 668 -73 49 -262 147 -326 170
l-31 10 63 196 c35 108 65 203 69 211 6 17 29 10 166 -50z m-615 -390 c325
-53 591 -187 828 -415 171 -164 289 -338 371 -546 52 -131 109 -384 86 -384
-18 0 -77 -60 -90 -90 l-13 -31 -146 3 -146 3 -7 75 c-24 238 -163 512 -346
681 -82 76 -216 165 -305 204 -37 16 -67 34 -67 40 0 6 10 39 21 74 25 72 17
106 -26 117 -37 9 -60 -16 -86 -95 -12 -36 -23 -67 -24 -68 -1 -2 -36 4 -79
12 -101 19 -311 19 -413 0 -221 -42 -402 -136 -569 -297 -50 -49 -94 -88 -97
-88 -4 0 -79 52 -167 116 -98 71 -157 121 -153 128 21 35 126 145 197 205 214
181 471 304 736 351 133 23 369 26 495 5z m-1904 -204 c16 -16 29 -39 29 -51
0 -28 -52 -80 -80 -80 -28 0 -80 52 -80 80 0 28 52 80 80 80 12 0 35 -13 51
-29z m185 -302 l125 -91 -21 -32 c-128 -196 -221 -450 -250 -689 -18 -139 -8
-403 20 -532 39 -185 124 -398 213 -538 l37 -57 -93 -68 c-50 -38 -130 -96
-177 -130 l-84 -62 -43 67 c-62 98 -157 293 -198 406 -194 542 -158 1132 99
1642 l71 140 65 6 c36 3 74 10 85 17 11 6 22 12 24 12 1 0 59 -41 127 -91z
m1672 -21 c34 -5 62 -15 62 -22 0 -6 -28 -99 -62 -207 l-63 -195 -110 0 c-167
1 -285 -43 -392 -146 -28 -27 -45 -38 -55 -32 -47 29 -338 247 -338 253 0 5
33 40 74 78 244 233 552 327 884 271z m252 -84 c153 -71 322 -220 417 -366 74
-115 133 -271 148 -393 3 -27 8 -60 11 -72 4 -23 3 -23 -103 -23 -116 0 -143
-11 -143 -56 0 -45 23 -54 139 -54 l108 0 -5 -52 c-20 -229 -162 -503 -334
-649 -102 -88 -298 -203 -314 -186 -3 3 -34 96 -68 206 l-63 200 65 38 c135
79 228 205 268 363 33 132 5 306 -70 435 -39 66 -133 155 -203 193 l-60 32 65
205 c37 113 71 205 77 205 5 0 35 -12 65 -26z m-1539 -165 c85 -61 157 -115
162 -118 4 -4 -15 -50 -43 -103 -101 -191 -125 -296 -124 -528 0 -155 3 -186
26 -270 14 -52 39 -125 55 -161 l30 -66 -21 -29 c-16 -22 -21 -45 -23 -97 l-1
-69 -108 -79 c-60 -43 -111 -79 -114 -79 -8 0 -68 105 -115 198 -44 90 -98
249 -120 356 -63 311 -28 624 102 921 37 85 122 235 134 235 3 0 76 -50 160
-111z m443 -329 c91 -67 166 -123 166 -124 0 -1 -11 -25 -25 -54 -13 -28 -32
-89 -41 -136 -25 -125 -8 -225 62 -382 3 -6 -53 -53 -123 -105 l-128 -94 -35
17 c-19 10 -54 18 -78 18 -41 0 -44 2 -62 43 -50 112 -72 219 -77 363 -6 151
7 244 49 369 30 89 99 217 113 211 7 -2 87 -59 179 -126z m743 37 c1 -2 -23
-83 -55 -181 l-57 -178 -147 106 c-81 59 -150 110 -152 115 -3 5 21 28 54 52
98 71 197 102 299 93 30 -3 56 -6 58 -7z m180 -76 c93 -63 173 -180 189 -278
l7 -43 -191 0 -191 0 13 43 c60 197 101 317 107 317 3 0 33 -18 66 -39z m-505
-268 c140 -101 148 -108 131 -123 -10 -9 -78 -61 -152 -115 -104 -76 -135 -95
-142 -84 -5 8 -19 45 -30 82 -27 87 -23 204 10 290 12 31 25 57 28 57 3 0 73
-48 155 -107z m1892 -64 c14 -17 26 -35 26 -40 0 -19 -30 -67 -45 -73 -52 -20
-115 18 -115 69 0 35 42 75 79 75 20 0 37 -9 55 -31z m-1198 -141 c-16 -105
-121 -250 -222 -305 l-39 -22 -54 172 c-29 95 -56 178 -58 185 -4 9 38 12 187
12 l193 0 -7 -42z m977 7 c9 -19 35 -47 57 -62 40 -28 41 -28 35 -78 -17 -142
-96 -371 -182 -522 -105 -185 -275 -374 -448 -499 -98 -71 -346 -200 -368
-191 -7 3 -27 49 -42 102 -32 108 -44 125 -84 125 -60 0 -64 -33 -21 -170 17
-51 30 -95 30 -96 0 -1 -53 -12 -117 -25 -151 -30 -407 -33 -551 -6 -344 63
-682 258 -902 518 l-39 46 101 74 c133 97 123 92 160 73 24 -12 49 -15 100
-12 l67 5 52 -44 c151 -128 351 -220 552 -253 80 -13 274 -13 357 0 294 47
580 231 746 481 92 139 167 337 180 477 3 37 7 73 10 80 2 9 41 12 147 12
l143 0 17 -35z m655 -64 c-47 -638 -395 -1226 -938 -1584 -144 -95 -413 -227
-462 -227 -9 0 -35 68 -77 206 -34 113 -61 207 -59 208 2 2 39 17 83 35 189
75 369 196 530 356 239 239 390 523 458 859 21 104 27 121 47 128 41 15 77 47
94 83 l17 35 157 0 158 0 -8 -99z m-2052 -131 c58 -185 59 -178 -26 -179 -102
-1 -221 43 -304 112 l-39 33 154 112 c90 65 156 106 158 99 3 -7 28 -86 57
-177z m-406 -143 c106 -95 226 -138 390 -138 l105 0 62 -201 c34 -111 60 -205
58 -209 -3 -4 -43 -13 -89 -19 -115 -18 -308 -8 -411 20 -139 37 -293 119
-399 212 -39 34 -39 34 -26 72 7 21 10 57 8 80 l-5 41 124 93 c69 50 127 92
130 92 3 0 27 -19 53 -43z m-435 -152 c35 -35 33 -76 -6 -109 -34 -29 -38 -30
-73 -16 -35 13 -60 54 -52 85 16 64 86 86 131 40z m-266 -662 c384 -331 903
-469 1391 -369 63 13 118 21 121 17 9 -8 131 -402 127 -406 -8 -8 -174 -45
-273 -61 -152 -25 -440 -25 -590 0 -457 74 -846 269 -1159 580 -95 94 -192
204 -185 210 2 2 82 60 177 129 l173 126 71 -80 c39 -44 105 -110 147 -146z"/>
<path d="M4039 4276 c-19 -40 1 -73 48 -82 21 -4 46 -11 56 -16 25 -13 57 -68
57 -98 0 -35 17 -50 57 -50 42 0 58 27 49 84 -17 102 -97 177 -196 184 -56 4
-60 3 -71 -22z"/>
</g>
</svg>
