<?xml version="1.0" standalone="no"?>
<!DOCTYPE svg PUBLIC "-//W3C//DTD SVG 20010904//EN"
 "http://www.w3.org/TR/2001/REC-SVG-20010904/DTD/svg10.dtd">
<svg version="1.0" xmlns="http://www.w3.org/2000/svg"
 width="512.000000pt" height="512.000000pt" viewBox="0 0 512.000000 512.000000"
 preserveAspectRatio="xMidYMid meet">
<metadata>
Created by potrace 1.16, written by Peter Selinger 2001-2019
</metadata>
<g transform="translate(0.000000,512.000000) scale(0.100000,-0.100000)"
fill="#000000" stroke="none">
<path d="M2320 4653 c-379 -52 -730 -216 -942 -442 -203 -214 -292 -456 -266
-721 13 -139 68 -289 150 -407 l29 -43 -95 0 c-74 0 -95 -3 -98 -15 -2 -10
-31 6 -98 53 -117 82 -348 311 -415 410 -27 39 -53 72 -59 72 -24 0 -106 -35
-106 -45 0 -15 64 -109 130 -190 120 -147 330 -328 492 -426 l57 -34 1 -117 0
-118 -175 0 -176 0 3 -62 3 -63 173 -3 172 -2 0 -123 0 -122 -63 -39 c-172
-109 -357 -268 -470 -404 -73 -89 -147 -193 -147 -208 0 -14 110 -48 119 -37
4 4 29 39 56 77 93 133 294 324 458 435 26 17 47 27 47 22 0 -6 41 -11 99 -13
l100 -3 -41 -60 c-177 -265 -200 -592 -61 -870 138 -276 423 -501 785 -619
107 -35 294 -76 349 -76 29 0 29 0 29 60 0 54 -2 60 -22 64 -260 49 -343 74
-493 145 -137 65 -234 131 -334 226 -98 94 -157 173 -205 276 -130 274 -86
567 122 815 35 42 38 44 93 44 l56 0 -10 -57 c-7 -41 -6 -80 2 -132 36 -235
240 -431 556 -535 87 -29 221 -57 230 -48 3 3 5 29 5 58 0 50 -2 54 -27 60
-189 43 -282 78 -397 152 -185 117 -280 301 -236 457 l13 45 423 0 424 0 0
475 0 475 -425 0 c-490 0 -440 -13 -440 115 0 71 4 88 34 150 82 167 288 301
554 360 l77 17 0 65 0 66 -54 -7 c-79 -9 -220 -52 -312 -95 -203 -96 -350
-240 -405 -399 -24 -71 -34 -174 -21 -230 l10 -43 -61 3 -61 3 -49 60 c-57 71
-131 215 -152 300 -103 397 148 799 627 1006 103 45 258 91 363 109 125 20
115 14 115 75 0 59 -3 63 -40 58z m-638 -1810 c14 -16 77 -98 139 -183 l114
-155 5 168 c5 152 7 170 24 183 21 15 64 18 83 6 27 -17 33 -70 33 -310 0
-280 -3 -295 -61 -300 -36 -3 -36 -2 -170 179 l-134 182 -5 -172 c-5 -156 -7
-174 -24 -187 -28 -20 -63 -17 -86 6 -19 19 -20 33 -20 295 0 262 1 276 20
295 27 27 52 25 82 -7z"/>
<path d="M2700 4641 c14 -11 33 -23 43 -27 26 -8 21 -17 -26 -44 l-42 -24 75
-8 c331 -33 653 -174 864 -377 338 -327 365 -739 70 -1098 l-27 -33 82 0 81 0
31 43 c48 65 117 213 139 302 29 110 29 290 1 396 -46 178 -126 314 -266 455
-108 109 -213 184 -361 257 -186 94 -415 158 -605 172 l-84 7 25 -21z"/>
<path d="M229 4413 c-36 -43 -26 -322 17 -493 35 -141 40 -147 50 -61 l9 73
39 -31 c22 -17 40 -30 42 -29 1 2 -7 36 -17 77 -28 111 -42 244 -36 348 4 70
2 96 -9 112 -19 26 -75 29 -95 4z"/>
<path d="M4796 4409 c-11 -17 -13 -41 -9 -108 7 -107 -11 -268 -42 -375 -13
-45 -21 -84 -17 -87 4 -4 28 -18 54 -33 57 -33 55 -36 92 115 45 177 55 431
20 487 -19 30 -77 31 -98 1z"/>
<path d="M2640 3826 c0 -2 27 -21 61 -41 l61 -37 -41 -27 -41 -27 95 -17 c298
-53 528 -191 616 -372 29 -60 34 -79 34 -145 0 -41 -3 -87 -8 -102 l-7 -28 65
0 c62 0 65 1 72 28 16 54 7 194 -16 257 -98 272 -406 459 -838 510 -29 3 -53
4 -53 1z"/>
<path d="M4527 3477 c-95 -133 -272 -303 -439 -421 l-68 -48 0 -69 c0 -38 3
-69 7 -69 30 0 279 186 386 289 130 125 302 340 285 356 -3 3 -29 -8 -59 -25
l-54 -29 -5 42 -5 42 -48 -68z"/>
<path d="M4570 2720 l-145 -89 -202 -1 -203 0 0 -65 0 -65 193 0 193 0 154
-95 c85 -52 158 -95 163 -95 4 0 7 43 7 95 l0 95 135 0 c122 0 137 2 155 20
25 25 26 72 2 93 -15 14 -42 17 -155 17 l-137 0 0 90 c0 50 -3 90 -8 90 -4 0
-72 -40 -152 -90z"/>
<path d="M97 2612 c-23 -25 -21 -68 3 -92 18 -18 33 -20 183 -20 l162 0 -25
20 c-14 11 -33 22 -42 26 -27 8 -22 16 35 51 l52 32 -176 1 c-158 0 -178 -2
-192 -18z"/>
<path d="M4020 2182 l0 -70 68 -48 c170 -121 343 -286 439 -421 l48 -68 3 43
c2 23 5 42 7 42 2 0 27 -14 56 -30 28 -17 54 -29 57 -26 3 3 -12 32 -33 63
-122 184 -318 375 -538 522 -112 75 -107 75 -107 -7z"/>
<path d="M3417 2068 c4 -18 8 -69 8 -113 0 -70 -4 -89 -32 -146 -91 -185 -358
-342 -636 -375 -31 -4 -57 -10 -57 -14 0 -5 14 -17 31 -27 l30 -20 -50 -33
c-28 -17 -51 -34 -51 -37 0 -5 66 3 177 23 158 28 335 101 458 189 177 126
280 323 260 498 -9 88 -9 87 -82 87 l-65 0 9 -32z"/>
<path d="M3650 2092 c0 -5 10 -17 21 -28 67 -60 164 -235 196 -354 23 -87 23
-261 -1 -349 -104 -384 -501 -681 -1021 -766 -49 -8 -107 -15 -127 -15 -47 0
-48 -10 -3 -34 19 -11 35 -22 35 -25 0 -3 -24 -21 -52 -39 l-53 -33 87 5 c335
22 693 165 936 375 151 131 278 330 323 506 26 102 28 280 5 379 -30 127 -108
292 -170 359 -23 25 -31 27 -101 27 -41 0 -75 -4 -75 -8z"/>
<path d="M4772 1309 c-40 -23 -52 -36 -47 -48 42 -110 70 -313 62 -445 -7
-109 0 -126 53 -126 30 0 43 5 54 23 34 55 25 302 -19 485 -35 148 -37 149
-103 111z"/>
<path d="M279 1315 c-4 -5 -19 -57 -33 -115 -43 -174 -53 -451 -17 -493 17
-21 74 -22 91 -2 9 10 13 65 15 173 2 147 21 280 51 357 6 16 -1 13 -37 -13
l-44 -33 -10 68 c-6 37 -13 64 -16 58z"/>
</g>
</svg>
