<?xml version="1.0" standalone="no"?>
<!DOCTYPE svg PUBLIC "-//W3C//DTD SVG 20010904//EN"
 "http://www.w3.org/TR/2001/REC-SVG-20010904/DTD/svg10.dtd">
<svg version="1.0" xmlns="http://www.w3.org/2000/svg"
 width="512.000000pt" height="512.000000pt" viewBox="0 0 512.000000 512.000000"
 preserveAspectRatio="xMidYMid meet">
<metadata>
Created by potrace 1.16, written by Peter Selinger 2001-2019
</metadata>
<g transform="translate(0.000000,512.000000) scale(0.100000,-0.100000)"
fill="#000000" stroke="none">
<path d="M760 5114 c-224 -42 -369 -114 -504 -250 -110 -109 -183 -236 -229
-392 -29 -103 -31 -342 -3 -442 26 -96 70 -194 123 -274 65 -99 871 -908 928
-932 52 -21 143 -21 186 1 19 10 91 74 161 143 l128 126 79 -77 c85 -83 113
-94 160 -61 23 17 25 15 226 -186 l204 -204 -731 -738 c-533 -538 -736 -737
-747 -732 -50 20 -145 27 -216 17 -132 -19 -187 -54 -368 -232 -144 -143 -157
-159 -157 -191 0 -33 22 -57 328 -363 282 -282 332 -327 357 -327 25 0 54 24
181 153 164 165 192 202 225 299 18 53 20 78 16 163 -3 55 -8 111 -12 125 -5
23 67 98 730 760 l735 735 736 -735 c705 -705 735 -736 729 -765 -30 -142 -22
-234 30 -344 30 -63 56 -95 193 -232 133 -134 162 -159 187 -159 25 0 74 45
357 327 295 294 328 331 328 360 0 37 -2 40 -172 202 -158 150 -224 194 -325
217 -79 17 -184 15 -239 -7 -27 -10 -43 5 -766 728 l-738 738 597 597 597 597
48 -44 c51 -49 75 -54 115 -28 l26 17 65 -69 c206 -221 465 -635 609 -970 19
-44 41 -88 50 -97 21 -23 75 -23 96 0 47 51 49 377 4 557 -51 202 -135 390
-254 569 -65 98 -186 249 -236 295 -26 23 -26 24 -7 50 31 44 32 65 6 103
l-24 36 38 37 c85 83 105 219 46 319 -86 147 -292 172 -418 49 l-36 -35 -30
21 c-40 28 -73 27 -102 -4 l-24 -25 -45 43 c-112 108 -312 247 -464 323 -239
121 -452 176 -677 176 -156 -1 -246 -17 -267 -48 -21 -32 -7 -84 27 -101 14
-7 96 -46 184 -88 319 -151 604 -333 838 -533 82 -71 86 -76 73 -96 -21 -29
-18 -69 6 -100 l21 -26 -60 -68 c-34 -37 -301 -307 -594 -600 l-533 -532 -204
204 c-202 202 -204 204 -187 227 31 45 21 69 -64 154 l-80 79 134 136 c96 98
137 146 146 174 16 50 8 147 -17 185 -10 16 -203 218 -429 448 -291 296 -433
433 -482 466 -153 102 -289 146 -472 152 -63 2 -126 2 -140 -1z m315 -164 c88
-28 174 -71 239 -120 28 -21 234 -222 459 -447 353 -354 407 -413 407 -438 0
-26 -63 -93 -488 -517 -457 -457 -490 -488 -522 -488 -33 0 -62 27 -456 423
-232 232 -436 444 -454 470 -176 264 -163 613 34 865 106 135 269 234 447 272
75 16 255 5 334 -20z m1970 -21 c154 -26 385 -118 545 -216 80 -50 237 -167
310 -233 l45 -40 -55 -55 -54 -54 -40 34 c-244 210 -496 382 -781 532 -64 34
-89 51 -70 48 17 -2 62 -9 100 -16z m1453 -425 c33 -21 55 -79 47 -121 -3 -19
-22 -52 -42 -74 l-36 -40 -84 83 c-46 45 -83 86 -83 90 0 15 70 77 92 81 33 7
78 -1 106 -19z m-213 -244 l160 -160 -128 -127 -127 -128 -162 162 -163 163
125 125 c69 69 127 125 130 125 3 0 77 -72 165 -160z m-367 -333 l62 -62
-1485 -1485 -1485 -1485 -62 63 -63 62 255 258 c539 543 2705 2712 2710 2712
3 0 34 -28 68 -63z m716 -184 c168 -215 296 -489 341 -727 24 -125 16 -133
-34 -36 -146 283 -348 579 -534 785 l-45 50 56 57 56 57 53 -59 c30 -33 78
-90 107 -127z m-2656 -326 l42 -43 -138 -137 -138 -137 -44 45 -44 45 134 135
c74 74 137 135 140 135 3 0 25 -19 48 -43z m412 -692 l-65 -65 -205 205 -205
205 65 65 65 65 205 -205 205 -205 -65 -65z m1115 -985 l720 -720 -65 -65 -65
-65 -722 722 -723 723 62 62 c34 35 65 63 68 63 3 0 329 -324 725 -720z
m-2791 -780 c79 -30 186 -132 228 -218 28 -57 33 -77 33 -142 0 -114 -28 -164
-172 -311 l-118 -120 -260 261 -260 261 127 124 c100 97 138 127 180 143 71
28 170 28 242 2z m3937 -9 c27 -14 97 -74 168 -145 l121 -121 -258 -258 -258
-258 -125 128 c-142 145 -169 193 -169 303 0 94 30 160 113 247 103 108 158
133 282 130 61 -2 91 -8 126 -26z"/>
<path d="M1124 4722 c-14 -9 -34 -47 -34 -64 0 -7 163 -176 362 -375 322 -322
366 -363 394 -363 38 0 64 27 64 66 0 25 -52 80 -358 386 -311 312 -361 358
-387 358 -17 0 -35 -4 -41 -8z"/>
</g>
</svg>
