<?xml version="1.0" standalone="no"?>
<!DOCTYPE svg PUBLIC "-//W3C//DTD SVG 20010904//EN"
 "http://www.w3.org/TR/2001/REC-SVG-20010904/DTD/svg10.dtd">
<svg version="1.0" xmlns="http://www.w3.org/2000/svg"
 width="512.000000pt" height="512.000000pt" viewBox="0 0 512.000000 512.000000"
 preserveAspectRatio="xMidYMid meet">
<metadata>
Created by potrace 1.16, written by Peter Selinger 2001-2019
</metadata>
<g transform="translate(0.000000,512.000000) scale(0.100000,-0.100000)"
fill="#000000" stroke="none">
<path d="M1011 5094 c-12 -15 -21 -35 -21 -44 0 -16 -15 -18 -157 -22 -175 -4
-197 -10 -250 -72 -89 -101 -61 -261 56 -323 41 -21 56 -23 198 -23 l153 0 0
-40 0 -40 -57 0 c-180 -1 -253 -70 -253 -240 0 -170 73 -239 253 -240 57 0 57
0 57 -30 0 -72 96 -108 139 -54 12 15 21 40 21 55 l0 29 164 0 c119 0 173 -4
198 -14 18 -8 73 -46 121 -85 l88 -70 -108 -93 c-59 -51 -123 -107 -140 -124
l-33 -32 0 -170 c0 -156 2 -171 21 -196 29 -37 89 -37 118 0 19 24 21 40 21
160 l0 133 106 93 c154 135 140 130 210 73 90 -74 168 -106 269 -113 l85 -5 0
-87 c0 -74 3 -92 23 -120 42 -63 71 -70 267 -70 196 0 225 7 268 70 19 28 22
46 22 120 l0 87 85 5 c101 7 179 39 269 113 70 57 56 62 210 -73 l106 -93 0
-133 c0 -120 2 -136 21 -160 29 -37 89 -37 118 0 19 25 21 40 21 196 l0 170
-32 32 c-18 17 -82 73 -141 124 l-108 93 88 71 c48 39 102 77 120 84 23 10 80
14 198 14 l165 0 0 -33 c0 -70 85 -103 135 -52 16 15 25 36 25 55 0 30 0 30
58 30 179 1 252 70 252 240 0 170 -73 239 -252 240 l-58 0 0 40 0 40 153 0
c142 0 157 2 198 23 117 62 145 222 56 323 -53 62 -75 68 -249 72 -143 4 -158
6 -158 22 0 9 -9 29 -21 44 -41 52 -139 25 -139 -39 l0 -25 -138 0 c-147 0
-187 -7 -237 -41 -57 -39 -79 -84 -83 -163 -3 -86 19 -133 86 -181 l44 -30
164 -3 164 -3 0 -38 0 -38 -182 -5 c-151 -4 -193 -9 -238 -26 -30 -11 -93 -35
-140 -52 -69 -26 -105 -33 -192 -37 -88 -5 -108 -3 -108 8 0 32 -62 142 -105
184 -92 92 -270 145 -322 96 -34 -32 -32 -93 3 -120 15 -12 41 -21 58 -21 49
0 134 -47 167 -93 16 -22 29 -44 29 -49 0 -4 -171 -8 -380 -8 -209 0 -380 4
-380 8 0 5 13 27 29 49 33 46 118 93 167 93 17 0 43 9 58 21 35 27 37 88 4
120 -53 49 -231 -4 -323 -96 -43 -42 -105 -152 -105 -184 0 -11 -20 -13 -107
-8 -88 4 -124 11 -193 37 -47 17 -110 41 -140 52 -45 17 -87 22 -237 26 l-183
5 0 38 0 38 164 3 c164 3 164 3 208 33 63 44 90 103 86 186 -4 74 -28 120 -83
158 -50 34 -90 41 -237 41 -138 0 -138 0 -138 23 0 64 -98 93 -139 41z m421
-241 c21 -18 24 -53 6 -71 -9 -9 -104 -12 -364 -12 -307 0 -355 2 -368 16 -22
22 -20 50 6 68 19 14 71 16 362 16 302 0 341 -2 358 -17z m2976 1 c26 -18 28
-46 6 -68 -13 -14 -61 -16 -368 -16 -260 0 -355 3 -364 12 -17 17 -15 48 5 70
15 17 39 18 357 18 293 0 345 -2 364 -16z m-2822 -531 c180 -74 164 -73 974
-73 810 0 794 -1 974 73 l101 42 302 3 c208 3 308 0 322 -8 18 -9 21 -20 21
-70 0 -36 -5 -62 -12 -67 -7 -4 -164 -10 -348 -13 l-335 -5 -55 -26 c-30 -15
-151 -103 -268 -198 -117 -94 -227 -179 -245 -188 -29 -16 -70 -18 -457 -18
-390 0 -428 1 -458 18 -18 10 -128 95 -245 189 -117 94 -237 183 -267 197
l-55 26 -335 5 c-184 3 -341 9 -347 13 -8 5 -13 31 -13 67 0 45 4 61 18 70 11
7 120 9 322 8 l305 -3 101 -42z m1104 -773 l0 -60 -130 0 -130 0 0 60 0 60
130 0 130 0 0 -60z"/>
<path d="M2373 4140 c-45 -19 -56 -80 -22 -124 l20 -26 189 0 189 0 20 26 c26
33 27 75 2 105 -19 23 -23 24 -198 26 -98 1 -188 -2 -200 -7z"/>
<path d="M2135 3165 c-44 -43 -35 -80 35 -147 98 -93 258 -158 390 -158 133 0
297 67 392 159 67 66 76 104 33 146 -39 40 -75 33 -141 -25 -179 -156 -389
-156 -568 0 -66 58 -102 65 -141 25z"/>
<path d="M1933 2955 c-30 -21 -38 -66 -18 -105 9 -17 52 -59 95 -94 329 -259
770 -260 1097 -1 45 35 89 78 98 95 31 59 -4 120 -68 120 -21 0 -47 -15 -90
-54 -116 -101 -217 -153 -349 -180 -214 -44 -432 16 -610 168 -82 70 -113 80
-155 51z"/>
<path d="M1727 2738 c-24 -19 -38 -64 -28 -90 5 -13 35 -48 67 -78 436 -413
1152 -413 1588 0 68 64 79 87 65 130 -13 35 -35 50 -78 50 -23 0 -48 -16 -106
-68 -388 -349 -968 -348 -1351 1 -60 54 -81 67 -107 67 -18 0 -41 -6 -50 -12z"/>
<path d="M847 1810 c-94 -60 -148 -185 -127 -298 5 -29 12 -57 15 -62 4 -6
-12 -7 -40 -3 -70 9 -168 -21 -216 -67 -34 -32 -39 -43 -39 -82 0 -191 165
-333 351 -302 l59 10 0 -37 0 -38 -337 -3 c-384 -3 -390 -4 -448 -87 l-30 -43
0 -331 c0 -381 1 -386 84 -438 l45 -29 2396 0 2396 0 45 29 c62 39 83 84 87
192 4 79 2 88 -21 114 -19 23 -32 29 -63 28 -56 -2 -74 -29 -74 -112 0 -36 -5
-73 -10 -81 -8 -12 -43 -16 -195 -18 l-185 -3 0 310 0 311 179 0 c215 0 211 2
211 -101 0 -84 18 -109 79 -109 31 0 44 6 61 28 20 24 22 36 18 119 -3 83 -7
97 -33 134 -17 23 -48 52 -70 63 -38 20 -58 21 -377 24 l-338 3 0 38 0 37 59
-10 c186 -31 351 111 351 302 0 39 -5 50 -39 82 -47 45 -145 76 -215 68 l-45
-5 11 26 c15 38 14 152 -2 191 -38 95 -129 180 -193 180 -72 0 -172 -90 -203
-182 -16 -49 -16 -159 0 -198 5 -12 -6 -15 -66 -16 -87 0 -175 -35 -205 -80
-42 -66 -7 -210 72 -289 68 -67 190 -101 278 -77 l37 10 0 -39 0 -39 -465 0
-465 0 0 40 c0 39 1 40 28 33 56 -16 165 -7 212 16 94 48 157 137 167 236 7
68 0 95 -33 129 -37 36 -151 70 -213 63 l-47 -6 15 59 c13 49 13 69 3 117 -15
73 -55 138 -111 180 -76 59 -132 56 -205 -9 -69 -60 -100 -126 -100 -213 -1
-38 2 -83 7 -100 l7 -30 -72 -1 c-86 0 -175 -35 -204 -79 -23 -35 -23 -105 1
-175 26 -77 111 -162 185 -184 61 -18 120 -20 168 -7 l32 10 0 -40 0 -39 -465
0 -465 0 0 41 c0 35 3 40 18 34 42 -17 130 -17 187 -1 115 34 208 162 209 287
0 93 -85 152 -222 153 l-72 1 7 30 c5 17 8 62 7 100 0 87 -31 153 -100 213
-73 65 -129 68 -205 9 -56 -42 -96 -107 -111 -180 -10 -48 -10 -68 3 -117 l15
-59 -46 6 c-30 3 -68 -1 -106 -12 -120 -34 -151 -72 -141 -173 9 -103 71 -194
164 -241 52 -26 145 -37 196 -23 l37 10 0 -39 0 -39 -460 0 -460 0 0 39 0 39
38 -10 c87 -24 209 10 277 77 79 79 114 223 72 289 -30 45 -118 80 -205 80
-60 1 -71 4 -66 16 3 8 9 45 11 81 7 88 -15 153 -73 217 -77 87 -139 102 -217
52z m131 -238 c4 -44 1 -53 -25 -82 l-30 -33 -20 29 c-30 43 -35 79 -18 121
26 62 35 68 63 39 18 -17 26 -39 30 -74z m1078 47 c24 -48 12 -114 -29 -148
-12 -10 -19 -7 -36 15 -39 49 -36 120 6 166 19 21 36 11 59 -33z m1094 -15
c14 -41 6 -84 -22 -119 -23 -29 -38 -23 -64 26 -24 48 -16 96 24 142 14 16 17
16 33 1 10 -9 23 -32 29 -50z m1082 9 c19 -43 19 -47 3 -88 -24 -65 -38 -72
-69 -35 -36 43 -36 106 0 149 14 17 30 28 36 25 6 -4 19 -27 30 -51z m-3488
-348 c15 -10 36 -35 47 -57 l20 -38 -26 -10 c-71 -27 -150 14 -178 93 -14 38
84 47 137 12z m503 11 c23 -23 -47 -110 -98 -121 -40 -9 -99 2 -99 19 0 25 46
81 80 99 32 17 102 19 117 3z m571 -5 c36 -19 72 -65 72 -94 0 -16 -29 -27
-70 -27 -35 0 -87 34 -110 72 -25 42 -25 47 3 58 35 14 65 11 105 -9z m520 4
c10 -9 -22 -67 -50 -90 -37 -31 -68 -39 -114 -30 -33 6 -35 8 -29 33 15 61 84
106 150 97 21 -3 41 -8 43 -10z m555 1 c40 -17 73 -53 82 -88 6 -25 4 -27 -29
-33 -20 -4 -47 -4 -61 -1 -35 9 -93 65 -101 98 -5 22 -2 27 18 31 43 8 59 7
91 -7z m529 -4 c23 -23 -46 -105 -99 -118 -38 -10 -93 4 -93 24 0 27 36 74 72
94 34 19 101 19 120 0z m587 -10 c29 -21 69 -87 59 -97 -16 -17 -87 -16 -121
0 -37 17 -77 69 -77 98 0 32 95 32 139 -1z m502 11 c12 -12 -22 -73 -52 -95
-32 -24 -87 -32 -122 -19 l-28 11 23 42 c29 52 80 81 132 74 21 -2 42 -8 47
-13z m-3931 -814 l0 -310 -185 3 c-152 2 -187 6 -195 18 -6 8 -10 135 -10 292
0 238 2 279 16 292 13 13 45 16 195 16 l179 0 0 -311z m540 1 l0 -310 -190 0
-190 0 0 310 0 310 190 0 190 0 0 -310z m540 0 l0 -310 -190 0 -190 0 0 310 0
310 190 0 190 0 0 -310z m550 0 l0 -310 -195 0 -195 0 0 310 0 310 195 0 195
0 0 -310z m540 0 l0 -310 -190 0 -190 0 0 310 0 310 190 0 190 0 0 -310z m550
0 l0 -310 -195 0 -195 0 0 310 0 310 195 0 195 0 0 -310z m540 0 l0 -310 -190
0 -190 0 0 310 0 310 190 0 190 0 0 -310z m540 0 l0 -310 -190 0 -190 0 0 310
0 310 190 0 190 0 0 -310z"/>
</g>
</svg>
