<?xml version="1.0" standalone="no"?>
<!DOCTYPE svg PUBLIC "-//W3C//DTD SVG 20010904//EN"
 "http://www.w3.org/TR/2001/REC-SVG-20010904/DTD/svg10.dtd">
<svg version="1.0" xmlns="http://www.w3.org/2000/svg"
 width="512.000000pt" height="512.000000pt" viewBox="0 0 512.000000 512.000000"
 preserveAspectRatio="xMidYMid meet">
<metadata>
Created by potrace 1.16, written by Peter Selinger 2001-2019
</metadata>
<g transform="translate(0.000000,512.000000) scale(0.100000,-0.100000)"
fill="#000000" stroke="none">
<path d="M696 3935 c-8 -8 -23 -39 -34 -67 -11 -29 -158 -399 -327 -822 l-306
-769 3 -187 c2 -140 6 -191 17 -203 12 -16 85 -17 852 -17 l839 0 0 -115 0
-115 -77 0 c-93 0 -143 -20 -190 -73 -43 -49 -53 -91 -53 -232 0 -93 4 -126
16 -143 l15 -22 679 0 680 0 16 25 c22 34 16 284 -8 330 -42 79 -112 115 -223
115 l-75 0 0 115 0 115 393 0 393 0 23 -72 c89 -276 299 -490 573 -584 252
-85 558 -45 781 103 224 149 369 388 396 655 17 178 -10 330 -89 493 -114 235
-339 415 -594 475 -97 23 -281 29 -371 11 -27 -5 -53 -7 -57 -3 -3 4 -94 227
-202 496 -107 269 -201 493 -208 498 -7 4 -651 8 -1430 8 -1246 0 -1418 -2
-1432 -15z m583 -447 c-38 -189 -68 -344 -69 -345 0 -5 -700 -3 -700 2 0 2 58
150 128 327 71 178 132 331 135 341 6 16 29 17 290 17 l283 0 -67 -342z m791
-3 l0 -345 -365 0 c-285 0 -365 3 -365 13 0 6 30 162 66 345 l67 332 298 0
299 0 0 -345z m784 7 c36 -186 66 -341 66 -345 0 -4 -164 -7 -365 -7 l-365 0
0 345 0 345 299 0 299 0 66 -338z m761 -5 c74 -186 135 -340 135 -342 0 -3
-157 -5 -349 -5 -324 0 -350 1 -355 18 -3 9 -32 157 -66 327 -33 171 -62 318
-64 328 -4 16 13 17 280 15 l284 -3 135 -338z m-2491 -784 c-35 -175 -66 -328
-69 -340 l-5 -23 -431 0 c-341 0 -430 3 -426 13 3 6 62 155 131 331 70 175
129 322 132 327 3 5 169 9 368 9 l363 0 -63 -317z m946 -23 l0 -340 -445 0
c-245 0 -445 3 -445 8 0 4 30 157 66 340 l67 332 378 0 379 0 0 -340z m944 8
c36 -183 66 -336 66 -340 0 -5 -200 -8 -445 -8 l-445 0 0 340 0 340 379 0 378
0 67 -332z m790 324 c2 -4 14 -31 25 -59 l20 -52 -54 -25 c-191 -87 -360 -268
-442 -473 l-25 -63 -59 0 c-53 0 -59 2 -64 23 -3 12 -34 165 -69 340 l-63 317
363 0 c199 0 365 -4 368 -8z m549 -188 c40 -8 119 -38 177 -66 93 -45 115 -61
201 -147 86 -86 102 -108 147 -201 61 -127 82 -216 82 -348 0 -217 -90 -420
-252 -567 -84 -76 -173 -127 -288 -166 -87 -30 -106 -33 -225 -33 -154 -1
-218 13 -350 78 -159 79 -272 192 -351 351 -65 132 -79 196 -78 350 0 119 3
138 33 225 90 264 287 450 551 519 94 25 253 27 353 5z m-1057 -635 c-3 -17
-6 -69 -6 -115 l0 -84 -1565 0 -1565 0 0 115 0 115 1571 0 1572 0 -7 -31z
m-906 -434 l0 -115 -260 0 -260 0 0 115 0 115 260 0 260 0 0 -115z m279 -250
c37 -19 41 -31 41 -131 l0 -84 -580 0 -580 0 0 88 c0 91 6 109 45 130 14 8
181 11 533 12 431 0 518 -2 541 -15z"/>
<path d="M3906 2563 c-45 -27 -86 -59 -97 -77 -20 -32 -24 -104 -10 -141 12
-30 -21 -71 -64 -79 -47 -9 -92 -50 -105 -94 -5 -20 -10 -71 -10 -112 1 -121
35 -175 126 -194 35 -8 68 -54 54 -76 -15 -23 -12 -108 5 -140 16 -30 131
-104 191 -123 48 -15 100 -1 139 38 43 43 86 47 110 11 9 -13 31 -31 50 -40
56 -27 93 -20 185 32 74 42 88 55 109 96 22 44 23 52 12 96 -16 64 -2 97 48
106 49 9 90 40 107 80 18 44 18 194 0 238 -17 41 -58 74 -103 82 -51 10 -68
42 -54 100 14 55 2 111 -31 141 -13 12 -54 40 -93 62 -54 32 -80 41 -115 41
-49 0 -102 -26 -120 -59 -16 -31 -67 -28 -92 4 -28 36 -70 55 -120 55 -33 0
-61 -11 -122 -47z m155 -99 c37 -40 73 -54 134 -54 63 0 86 9 132 52 l31 30
56 -31 c31 -18 58 -36 61 -41 3 -4 0 -31 -7 -59 -11 -48 -10 -54 18 -108 31
-60 80 -103 119 -103 36 0 46 -22 43 -91 l-3 -63 -44 -13 c-57 -16 -94 -52
-121 -116 -20 -46 -21 -57 -11 -101 6 -27 8 -53 4 -57 -5 -4 -34 -21 -65 -38
-56 -32 -57 -32 -68 -11 -21 40 -69 60 -145 60 -74 0 -104 -13 -141 -57 l-19
-23 -63 36 c-54 31 -63 39 -57 58 18 61 17 96 -4 139 -30 61 -66 95 -115 108
-22 6 -44 16 -48 23 -12 18 -9 121 4 134 7 7 22 12 34 12 35 0 87 42 117 95
27 50 28 55 15 154 -2 20 7 30 52 57 30 18 58 33 61 34 3 0 16 -12 30 -26z"/>
<path d="M4072 2304 c-155 -77 -191 -295 -69 -422 55 -58 102 -77 192 -77 70
0 87 4 133 29 90 50 132 124 132 234 0 156 -106 261 -266 262 -56 0 -81 -5
-122 -26z m196 -114 c120 -73 79 -253 -61 -267 -53 -5 -112 28 -138 77 -67
125 78 264 199 190z"/>
</g>
</svg>
