<?xml version="1.0" standalone="no"?>
<!DOCTYPE svg PUBLIC "-//W3C//DTD SVG 20010904//EN"
 "http://www.w3.org/TR/2001/REC-SVG-20010904/DTD/svg10.dtd">
<svg version="1.0" xmlns="http://www.w3.org/2000/svg"
 width="512.000000pt" height="512.000000pt" viewBox="0 0 512.000000 512.000000"
 preserveAspectRatio="xMidYMid meet">
<metadata>
Created by potrace 1.16, written by Peter Selinger 2001-2019
</metadata>
<g transform="translate(0.000000,512.000000) scale(0.100000,-0.100000)"
fill="#000000" stroke="none">
<path d="M2482 5028 c-27 -6 -53 -21 -72 -41 -37 -40 -585 -943 -614 -1012
-19 -45 -21 -69 -20 -226 l1 -176 -44 -23 c-24 -13 -52 -34 -62 -46 -17 -21
-51 -26 -677 -99 -889 -103 -830 -94 -866 -119 -56 -38 -73 -71 -73 -140 0
-54 4 -68 29 -100 16 -21 43 -44 61 -52 25 -10 155 -16 534 -25 276 -6 550 -9
609 -7 126 5 190 28 310 108 41 28 77 49 80 46 3 -3 0 -369 -7 -813 -6 -445
-11 -834 -11 -865 l0 -56 -37 10 c-62 17 -132 56 -252 140 -158 112 -239 148
-341 155 l-80 6 0 257 0 258 27 17 c26 17 32 17 167 -4 78 -11 157 -21 177
-21 42 0 69 24 69 62 0 47 -28 58 -209 86 -113 17 -171 30 -171 38 0 16 -56
63 -83 70 -18 4 -34 35 -81 157 -32 84 -65 160 -74 170 -22 25 -77 22 -96 -5
-9 -12 -16 -29 -16 -37 0 -8 27 -84 61 -169 l60 -154 -17 -36 c-10 -23 -14
-47 -10 -71 5 -35 0 -43 -99 -166 -82 -103 -104 -137 -105 -162 0 -39 22 -63
61 -63 34 0 42 7 133 123 38 48 71 87 73 87 1 0 3 -103 3 -229 l0 -229 -27 -7
c-141 -34 -513 -307 -513 -376 0 -39 27 -69 62 -69 24 0 48 15 107 69 108 97
203 167 282 206 38 19 73 35 79 35 22 0 9 -39 -17 -52 -38 -18 -51 -59 -29
-92 16 -25 20 -26 121 -26 113 0 135 9 135 56 0 37 -16 61 -45 68 -21 5 -25
12 -25 41 0 35 1 35 43 35 87 0 173 -41 352 -170 100 -72 184 -114 255 -129
l55 -11 -3 -363 c-1 -199 -5 -381 -8 -404 l-5 -43 -70 0 c-39 0 -79 -4 -89
-10 -27 -14 -35 -65 -16 -95 l16 -25 370 0 c357 0 371 1 390 20 27 27 25 56
-5 85 -21 22 -33 25 -100 25 l-75 0 0 288 c0 158 -3 351 -7 428 l-6 142 52 11
c65 14 174 14 226 0 22 -5 105 -41 185 -80 270 -129 358 -129 790 -4 105 30
200 55 212 55 20 0 21 -3 14 -92 -3 -50 -6 -112 -6 -138 l0 -47 -47 -6 c-52
-6 -73 -25 -73 -68 0 -59 4 -60 313 -57 l282 3 13 28 c11 22 11 32 0 55 -11
22 -23 29 -66 36 l-52 10 0 154 0 154 73 -7 c187 -18 362 -50 640 -120 196
-50 218 -52 241 -29 20 19 21 78 2 93 -44 36 -567 151 -805 177 l-158 17 -7
401 c-3 221 -9 507 -12 636 -5 191 -3 238 8 253 10 14 145 48 561 141 301 68
558 131 572 140 82 54 84 187 3 236 -45 27 -87 26 -555 -14 -446 -38 -447 -39
-575 -142 -65 -52 -71 -55 -101 -45 -18 5 -41 11 -53 13 -12 2 -176 173 -404
421 -414 449 -412 448 -496 433 -77 -15 -130 -105 -107 -180 11 -34 458 -681
507 -734 45 -48 110 -86 199 -117 67 -24 77 -31 77 -52 0 -13 7 -40 15 -59 14
-35 12 -44 -146 -552 -137 -440 -160 -524 -156 -565 10 -111 140 -163 227 -91
16 14 45 57 63 95 l33 70 -4 -153 c-2 -84 -5 -154 -7 -156 -1 -1 -47 -14 -102
-27 -56 -13 -150 -40 -209 -59 -318 -103 -419 -99 -667 23 -78 38 -166 74
-195 80 -60 13 -185 13 -253 2 l-46 -7 -7 325 c-12 643 -19 1221 -14 1221 3 0
171 -223 374 -495 393 -529 398 -535 482 -535 103 0 190 109 163 206 -5 19
-128 252 -273 517 -247 453 -267 486 -333 553 -61 61 -86 78 -190 128 -154 73
-150 71 -153 88 -1 8 131 322 294 698 288 667 296 686 292 741 -8 112 -91 171
-206 147z m78 -157 c0 -15 -94 -244 -107 -260 -2 -3 -92 27 -101 34 -5 4 147
248 160 256 17 11 48 -9 48 -30z m-216 -365 l55 -24 -125 -289 c-69 -158 -159
-368 -201 -465 l-76 -177 -28 14 c-15 8 -34 15 -42 15 -29 0 -36 257 -9 335
10 28 85 160 166 295 181 298 195 320 201 320 2 0 29 -11 59 -24z m866 -1101
c161 -176 308 -336 327 -356 32 -34 33 -36 16 -52 -17 -15 -24 -14 -102 18
-50 20 -98 47 -117 67 -46 46 -494 691 -487 701 7 11 5 13 363 -378z m-1273
29 c35 -22 56 -71 50 -116 -15 -110 -127 -153 -209 -79 -62 56 -43 172 35 207
36 16 89 11 124 -12z m-325 -141 l3 -46 -65 -48 c-36 -26 -90 -60 -120 -76
l-55 -28 -378 2 c-209 1 -381 4 -384 7 -3 2 -7 32 -10 65 -5 55 -4 61 13 62
11 0 219 24 464 53 245 30 464 54 486 55 l42 1 4 -47z m621 -76 c43 -22 97
-59 119 -81 27 -27 99 -146 209 -346 l168 -305 -27 -23 c-38 -33 -72 -55 -76
-51 -2 2 -128 172 -281 377 l-278 374 22 38 c11 21 21 45 21 55 0 21 21 15
123 -38z m-1763 -46 c0 -22 3 -47 7 -57 6 -16 -3 -17 -133 -10 -76 4 -144 12
-151 18 -17 14 -16 33 2 48 14 11 165 36 243 39 31 1 32 0 32 -38z m4470 -36
c0 -12 -68 -28 -523 -130 -259 -58 -480 -108 -489 -111 -11 -3 -19 3 -24 18
-6 19 2 30 47 70 99 88 100 88 504 124 355 31 485 39 485 29z m-3040 -244 c0
-97 7 -590 15 -1096 8 -506 15 -1018 15 -1137 l0 -218 -77 0 -78 0 3 172 c16
1111 32 2238 32 2338 l0 125 45 -3 45 -4 0 -177z m1859 13 c28 -35 26 -69 -4
-99 -30 -30 -64 -32 -99 -4 -52 41 -18 129 49 129 24 0 39 -7 54 -26z m-74
-254 c17 0 39 -117 33 -180 -4 -37 -50 -145 -184 -430 -100 -213 -182 -376
-187 -371 -4 4 59 224 144 500 118 379 156 491 167 486 7 -3 20 -5 27 -5z
m-819 -415 c62 -117 63 -120 45 -139 -26 -26 -38 -16 -125 99 l-76 100 38 32
c20 18 41 31 46 30 4 -2 37 -57 72 -122z m888 -812 l8 -423 -57 0 -57 0 6 158
c3 86 8 315 11 507 l6 350 32 70 32 71 6 -156 c4 -85 10 -345 13 -577z"/>
</g>
</svg>
