<?xml version="1.0" standalone="no"?>
<!DOCTYPE svg PUBLIC "-//W3C//DTD SVG 20010904//EN"
 "http://www.w3.org/TR/2001/REC-SVG-20010904/DTD/svg10.dtd">
<svg version="1.0" xmlns="http://www.w3.org/2000/svg"
 width="512.000000pt" height="512.000000pt" viewBox="0 0 512.000000 512.000000"
 preserveAspectRatio="xMidYMid meet">
<metadata>
Created by potrace 1.16, written by Peter Selinger 2001-2019
</metadata>
<g transform="translate(0.000000,512.000000) scale(0.100000,-0.100000)"
fill="#000000" stroke="none">
<path d="M1172 5101 c-40 -10 -112 -38 -160 -61 -72 -36 -104 -60 -183 -139
-83 -84 -102 -109 -142 -191 -60 -125 -77 -201 -77 -337 0 -136 23 -234 82
-353 34 -68 61 -103 133 -175 103 -103 183 -154 302 -191 l81 -26 4 -141 c3
-138 4 -144 37 -212 42 -86 124 -171 204 -209 l57 -28 0 -1369 0 -1369 -102 0
c-84 0 -108 -4 -132 -19 -46 -31 -66 -69 -66 -131 0 -62 20 -100 66 -131 28
-18 71 -19 1284 -19 1213 0 1256 1 1284 19 46 31 66 69 66 131 0 62 -20 100
-66 131 -24 15 -48 19 -131 19 l-103 0 0 1369 0 1369 58 28 c79 38 161 123
203 209 33 68 34 74 37 212 l4 141 81 26 c119 37 199 88 302 191 72 72 99 107
133 175 58 117 82 218 82 347 0 135 -21 225 -78 343 -39 82 -59 108 -141 190
-78 78 -112 104 -181 138 -47 23 -121 51 -164 62 -77 19 -114 20 -1390 19
-1227 0 -1316 -2 -1384 -18z m2637 -291 c153 -20 288 -118 354 -257 30 -64 32
-74 32 -183 0 -109 -2 -119 -32 -183 -43 -90 -130 -177 -219 -219 -86 -40
-199 -51 -251 -23 -45 25 -73 72 -73 126 0 78 54 132 144 144 98 13 146 64
146 155 0 63 -25 109 -73 135 -55 29 -183 18 -272 -25 -92 -44 -171 -123 -215
-215 -30 -62 -35 -81 -38 -170 -2 -56 1 -117 6 -138 l10 -37 -769 0 -770 0 8
23 c4 12 8 74 8 137 0 111 -1 118 -34 185 -45 92 -125 171 -216 215 -89 43
-217 54 -272 25 -48 -26 -73 -72 -73 -135 0 -91 47 -141 146 -155 90 -12 144
-66 144 -144 0 -54 -28 -101 -73 -126 -52 -28 -165 -17 -251 23 -89 42 -176
129 -219 219 -30 64 -32 74 -32 183 0 109 2 119 32 183 64 135 202 238 345
256 91 12 2416 13 2507 1z m-201 -1283 c-6 -107 -22 -146 -78 -180 l-35 -22
-935 0 c-917 0 -936 0 -968 20 -56 34 -74 75 -80 181 l-5 94 1053 0 1053 0 -5
-93z m-298 -1867 l0 -1360 -750 0 -750 0 0 1360 0 1360 750 0 750 0 0 -1360z"/>
<path d="M2176 2701 c-15 -10 -37 -32 -47 -47 -18 -28 -19 -65 -19 -994 0
-929 1 -966 19 -994 31 -46 69 -66 131 -66 62 0 100 20 131 66 18 28 19 65 19
994 0 929 -1 966 -19 994 -31 46 -69 66 -131 66 -37 0 -64 -6 -84 -19z"/>
<path d="M2776 2701 c-15 -10 -37 -32 -47 -47 -18 -28 -19 -65 -19 -994 0
-929 1 -966 19 -994 31 -46 69 -66 131 -66 62 0 100 20 131 66 18 28 19 65 19
994 0 929 -1 966 -19 994 -31 46 -69 66 -131 66 -37 0 -64 -6 -84 -19z"/>
</g>
</svg>
