<?xml version="1.0" standalone="no"?>
<!DOCTYPE svg PUBLIC "-//W3C//DTD SVG 20010904//EN"
 "http://www.w3.org/TR/2001/REC-SVG-20010904/DTD/svg10.dtd">
<svg version="1.0" xmlns="http://www.w3.org/2000/svg"
 width="512.000000pt" height="512.000000pt" viewBox="0 0 512.000000 512.000000"
 preserveAspectRatio="xMidYMid meet">
<metadata>
Created by potrace 1.16, written by Peter Selinger 2001-2019
</metadata>
<g transform="translate(0.000000,512.000000) scale(0.100000,-0.100000)"
fill="#000000" stroke="none">
<path d="M2160 5111 c-95 -30 -177 -102 -218 -190 -22 -46 -28 -74 -30 -152
l-4 -96 -57 -6 c-101 -9 -178 -65 -223 -162 l-23 -50 -3 -574 c-3 -612 1 -677
43 -760 36 -72 123 -147 198 -170 l62 -19 5 -143 c3 -88 10 -153 17 -166 11
-19 -34 -180 -362 -1287 -214 -724 -372 -1273 -368 -1283 18 -52 22 -53 239
-53 170 0 205 3 218 15 19 19 -5 -59 367 1197 l304 1028 3 -1102 c2 -1008 3
-1103 19 -1120 15 -16 35 -18 213 -18 178 0 198 2 213 18 16 17 17 112 19
1121 l3 1102 304 -1028 c375 -1267 348 -1179 367 -1198 13 -12 48 -15 218 -15
191 0 204 1 221 20 10 11 18 33 18 48 0 15 -167 591 -372 1280 -325 1098 -369
1256 -359 1275 8 13 15 78 18 166 l5 143 62 19 c75 23 162 98 198 170 42 83
46 148 43 760 l-3 574 -23 50 c-45 97 -122 153 -223 162 l-57 6 -4 96 c-2 78
-8 106 -30 152 -32 69 -90 129 -160 166 l-53 28 -390 2 c-214 1 -401 -2 -415
-6z m785 -158 c50 -27 80 -58 100 -105 13 -33 15 -130 15 -753 l0 -715 -500 0
-500 0 0 715 c0 623 2 720 15 753 28 65 81 107 155 123 19 4 179 7 355 6 307
-2 322 -3 360 -24z m-1035 -1057 l0 -625 26 -20 c26 -21 35 -21 624 -21 589 0
598 0 624 21 l26 20 0 625 0 624 26 0 c40 0 88 -27 109 -63 19 -31 20 -54 20
-627 l0 -595 -28 -47 c-29 -51 -63 -78 -116 -96 -48 -17 -1274 -17 -1322 0
-53 18 -87 45 -116 96 l-28 47 0 590 c0 475 3 596 14 622 16 40 65 73 109 73
l32 0 0 -624z m1150 -1082 c0 -63 -5 -124 -11 -136 -24 -45 -52 -48 -489 -48
-437 0 -465 3 -489 48 -6 12 -11 73 -11 136 l0 116 500 0 500 0 0 -116z m-823
-336 c-2 -7 -159 -536 -348 -1175 l-344 -1163 -89 0 c-66 0 -87 3 -84 13 3 6
160 535 349 1174 l344 1163 89 0 c66 0 87 -3 83 -12z m413 -1163 l0 -1175 -90
0 -90 0 0 1175 0 1175 90 0 90 0 0 -1175z m749 12 c189 -639 346 -1168 349
-1174 3 -10 -18 -13 -84 -13 l-89 0 -344 1163 c-189 639 -346 1168 -348 1175
-4 9 17 12 83 12 l89 0 344 -1163z"/>
<path d="M2449 4787 c-95 -36 -165 -105 -200 -196 -17 -45 -20 -72 -17 -136 7
-131 72 -229 188 -284 46 -22 69 -26 140 -26 71 0 94 4 141 26 115 54 180 152
187 284 3 65 0 91 -17 136 -27 72 -84 136 -152 174 -46 25 -67 30 -144 32 -58
2 -103 -2 -126 -10z m189 -151 c15 -8 39 -27 54 -43 117 -124 3 -331 -166
-299 -133 25 -193 197 -103 295 55 59 151 80 215 47z"/>
<path d="M2369 3869 c-25 -9 -49 -45 -49 -73 0 -7 9 -25 21 -40 l20 -26 199 0
199 0 20 26 c12 15 21 33 21 40 0 29 -25 64 -53 74 -37 12 -342 12 -378 -1z"/>
</g>
</svg>
