<svg width="100" height="100" viewBox="0 0 100 100" fill="none" xmlns="http://www.w3.org/2000/svg">
<path d="M62.6818 81.6406C59.7806 85.4928 55.1363 87.9883 49.902 87.9883C44.6676 87.9883 40.0233 85.4928 37.1221 81.6406" stroke="white" stroke-width="3"/>
<path d="M42.5 77.1484C44.4352 78.9435 47.0874 80.7617 49.8889 80.7617C53.7482 80.7617 55.6552 79.4051 57.5537 77.1484" stroke="white" stroke-width="3"/>
<circle cx="49.5117" cy="50.8789" r="7.77734" stroke="white" stroke-width="3"/>
<path d="M56.5609 51.7578H65.6797C68.9934 51.7578 71.6797 49.0715 71.6797 45.7578V32.1719C71.6797 28.8582 68.9934 26.1719 65.6797 26.1719H33.3437C30.03 26.1719 27.3438 28.8582 27.3438 32.1719V45.7578C27.3438 49.0715 30.03 51.7578 33.3437 51.7578H41.9523" stroke="white" stroke-width="3"/>
<path d="M23.2422 40.6875H16.046L12.7322 36.609L9.77118 32.1674C9.9106 31.8219 10.2491 31.5781 10.6445 31.5781H23.2422C25.7577 31.5781 27.7969 33.6173 27.7969 36.1328C27.7969 38.6483 25.7577 40.6875 23.2422 40.6875Z" stroke="white" stroke-width="3"/>
<path d="M76.9531 40.6875H84.1493L87.4631 36.609L90.4241 32.1674C90.2847 31.8219 89.9462 31.5781 89.5508 31.5781H76.9531C74.4376 31.5781 72.3984 33.6173 72.3984 36.1328C72.3984 38.6483 74.4376 40.6875 76.9531 40.6875Z" stroke="white" stroke-width="3"/>
<path d="M15.7578 31.5078V14.7461C15.7578 13.1475 17.0537 11.8516 18.6523 11.8516C20.2509 11.8516 21.5469 13.1475 21.5469 14.7461V31.5078H20.6055H18.6523H18.3594H15.7578Z" stroke="white" stroke-width="3"/>
<path d="M78.4531 31.5078V14.7461C78.4531 13.1475 79.7491 11.8516 81.3477 11.8516C82.9463 11.8516 84.2422 13.1475 84.2422 14.7461V31.5078H83.3008H81.3477H81.0547H78.4531Z" stroke="white" stroke-width="3"/>
<rect y="15.625" width="37.3047" height="2.92969" rx="1.46484" fill="white"/>
<rect x="62.6953" y="15.625" width="37.3047" height="2.92969" rx="1.46484" fill="white"/>
<path d="M28.1254 47.4609C20.8472 51.9371 15.4838 62.1846 14.4424 74.5117" stroke="white" stroke-width="3"/>
<path d="M32.4219 51.7578C25.8768 55.5391 21.0537 64.1959 20.1172 74.6094" stroke="white" stroke-width="3"/>
<path d="M20.1172 74.0234V74.0904V76.3672V76.3672C20.1172 77.6616 19.0679 78.7109 17.7734 78.7109H16.7969C15.5025 78.7109 14.4531 77.6616 14.4531 76.3672V76.3672V74.1583C14.4531 74.0838 14.5135 74.0234 14.588 74.0234V74.0234H15.625" stroke="white" stroke-width="3"/>
<path d="M72.6563 47.4609C79.3052 51.921 84.2048 62.1315 85.1562 74.4141" stroke="white" stroke-width="3"/>
<path d="M68.9453 51.7578C74.867 55.5391 79.2308 64.1959 80.0781 74.6094" stroke="white" stroke-width="3"/>
<path d="M80.0781 74.0234V74.0904V76.3672V76.3672C80.0781 77.6616 81.1275 78.7109 82.4219 78.7109H82.8125C84.1069 78.7109 85.1562 77.6616 85.1562 76.3672V76.3672V74.1443C85.1562 74.0776 85.1021 74.0234 85.0353 74.0234V74.0234H84.1056" stroke="white" stroke-width="3"/>
<path d="M42.5707 51.7578H41.6705C38.0657 51.7578 35.5869 55.3801 36.8923 58.7402V58.7402L38.2988 61.2908C38.6419 61.9131 39.0909 62.4709 39.6256 62.939V62.939C40.7405 63.9151 42.1719 64.4531 43.6537 64.4531H55.4849C56.3163 64.4531 57.1382 64.2755 57.8954 63.9322V63.9322C58.6379 63.5956 59.3017 63.1071 59.844 62.4983L60.138 62.1682C60.6165 61.631 61.0197 61.0311 61.3363 60.3851L62.2592 58.5022V58.5022C63.675 55.2928 61.3716 51.6756 57.8646 51.601L56.0547 51.5625" stroke="white" stroke-width="3"/>
<path d="M46.2891 50.5859C46.4168 51.582 46.495 51.6325 46.9276 52.4674C47.1516 52.8999 47.7374 53.4245 48.2864 53.6123C48.7136 53.7584 49.1474 53.9063 49.6094 53.9063" stroke="white" stroke-width="3" stroke-linecap="round"/>
</svg>
