<svg width="48" height="48" viewBox="0 0 48 48" fill="none" xmlns="http://www.w3.org/2000/svg">
<path d="M2.1 42V37.4C2.1 36.2667 2.36667 35.325 2.9 34.575C3.43333 33.825 4.18333 33.2167 5.15 32.75C6.95 31.8833 8.875 31.1667 10.925 30.6C12.975 30.0333 15.3 29.75 17.9 29.75C20.5 29.75 22.825 30.0333 24.875 30.6C26.925 31.1667 28.85 31.8833 30.65 32.75C31.6167 33.2167 32.3667 33.825 32.9 34.575C33.4333 35.325 33.7 36.2667 33.7 37.4V42H2.1ZM5.1 39H30.7V37.4C30.7 36.9 30.5583 36.4917 30.275 36.175C29.9917 35.8583 29.65 35.6167 29.25 35.45C27.8167 34.8167 26.2167 34.2083 24.45 33.625C22.6833 33.0417 20.5 32.75 17.9 32.75C15.3 32.75 13.1167 33.0417 11.35 33.625C9.58333 34.2083 7.98333 34.8167 6.55 35.45C6.15 35.6167 5.80833 35.8583 5.525 36.175C5.24167 36.4917 5.1 36.9 5.1 37.4V39ZM17.9 26.75C15.7 26.75 13.9 26.0333 12.5 24.6C11.1 23.1667 10.4 21.3833 10.4 19.25H9.9C9.63333 19.25 9.4 19.15 9.2 18.95C9 18.75 8.9 18.5167 8.9 18.25C8.9 17.9833 9 17.75 9.2 17.55C9.4 17.35 9.63333 17.25 9.9 17.25H10.4C10.4 15.9167 10.7333 14.7167 11.4 13.65C12.0667 12.5833 12.9333 11.7167 14 11.05V13C14 13.2 14.075 13.375 14.225 13.525C14.375 13.675 14.55 13.75 14.75 13.75C14.9833 13.75 15.1667 13.675 15.3 13.525C15.4333 13.375 15.5 13.2 15.5 13V10.4C15.7667 10.3333 16.1333 10.275 16.6 10.225C17.0667 10.175 17.5167 10.15 17.95 10.15C18.3833 10.15 18.8333 10.175 19.3 10.225C19.7667 10.275 20.1333 10.3333 20.4 10.4V13C20.4 13.2 20.4667 13.375 20.6 13.525C20.7333 13.675 20.9167 13.75 21.15 13.75C21.35 13.75 21.525 13.675 21.675 13.525C21.825 13.375 21.9 13.2 21.9 13V11.05C22.9667 11.7167 23.8167 12.5833 24.45 13.65C25.0833 14.7167 25.4 15.9167 25.4 17.25H25.9C26.1667 17.25 26.4 17.35 26.6 17.55C26.8 17.75 26.9 17.9833 26.9 18.25C26.9 18.5167 26.8 18.75 26.6 18.95C26.4 19.15 26.1667 19.25 25.9 19.25H25.4C25.4 21.3833 24.7 23.1667 23.3 24.6C21.9 26.0333 20.1 26.75 17.9 26.75ZM17.9 23.75C19.3 23.75 20.4 23.3333 21.2 22.5C22 21.6667 22.4 20.5833 22.4 19.25H13.4C13.4 20.5833 13.8 21.6667 14.6 22.5C15.4 23.3333 16.5 23.75 17.9 23.75ZM33 29.95L32.9 28.5C32.6667 28.3667 32.425 28.2167 32.175 28.05C31.925 27.8833 31.7 27.7167 31.5 27.55L30.2 28.25L29.1 26.65L30.4 25.7C30.3333 25.5667 30.3 25.4417 30.3 25.325V24.575C30.3 24.4583 30.3333 24.3333 30.4 24.2L29.1 23.25L30.2 21.65L31.5 22.35L32.2 21.85C32.4333 21.6833 32.6667 21.5333 32.9 21.4L33 19.95H35L35.1 21.4C35.3333 21.5333 35.5667 21.6833 35.8 21.85L36.5 22.35L37.8 21.65L38.9 23.25L37.6 24.2C37.6667 24.3333 37.7 24.4583 37.7 24.575V25.325C37.7 25.4417 37.6667 25.5667 37.6 25.7L38.9 26.65L37.8 28.25L36.5 27.55C36.3 27.7167 36.075 27.8833 35.825 28.05C35.575 28.2167 35.3333 28.3667 35.1 28.5L35 29.95H33ZM34 26.85C34.5333 26.85 34.9833 26.6667 35.35 26.3C35.7167 25.9333 35.9 25.4833 35.9 24.95C35.9 24.4167 35.7167 23.9667 35.35 23.6C34.9833 23.2333 34.5333 23.05 34 23.05C33.4667 23.05 33.0167 23.2333 32.65 23.6C32.2833 23.9667 32.1 24.4167 32.1 24.95C32.1 25.4833 32.2833 25.9333 32.65 26.3C33.0167 26.6667 33.4667 26.85 34 26.85ZM38.4 19.1L37.95 17.35C37.6167 17.2167 37.275 17.0333 36.925 16.8C36.575 16.5667 36.2833 16.3167 36.05 16.05L33.85 16.85L32.85 15.1L34.6 13.7C34.5333 13.5333 34.475 13.35 34.425 13.15C34.375 12.95 34.35 12.75 34.35 12.55C34.35 12.35 34.375 12.15 34.425 11.95C34.475 11.75 34.5333 11.5667 34.6 11.4L32.85 10L33.85 8.25L36.05 9.05C36.2833 8.78333 36.575 8.525 36.925 8.275C37.275 8.025 37.6167 7.85 37.95 7.75L38.4 6H40.3L40.75 7.75C41.0833 7.85 41.425 8.025 41.775 8.275C42.125 8.525 42.4167 8.78333 42.65 9.05L44.85 8.25L45.85 10L44.1 11.4C44.1667 11.5667 44.225 11.75 44.275 11.95C44.325 12.15 44.35 12.35 44.35 12.55C44.35 12.75 44.325 12.95 44.275 13.15C44.225 13.35 44.1667 13.5333 44.1 13.7L45.85 15.1L44.85 16.85L42.65 16.05C42.4167 16.3167 42.125 16.5667 41.775 16.8C41.425 17.0333 41.0833 17.2167 40.75 17.35L40.3 19.1H38.4ZM39.35 15.45C40.1833 15.45 40.875 15.175 41.425 14.625C41.975 14.075 42.25 13.3833 42.25 12.55C42.25 11.7167 41.975 11.025 41.425 10.475C40.875 9.925 40.1833 9.65 39.35 9.65C38.5167 9.65 37.825 9.925 37.275 10.475C36.725 11.025 36.45 11.7167 36.45 12.55C36.45 13.3833 36.725 14.075 37.275 14.625C37.825 15.175 38.5167 15.45 39.35 15.45Z" fill="white"/>
</svg>
